<?xml version="1.0" standalone="no"?>
<!DOCTYPE svg PUBLIC "-//W3C//DTD SVG 20010904//EN"
 "http://www.w3.org/TR/2001/REC-SVG-20010904/DTD/svg10.dtd">
<svg version="1.0" xmlns="http://www.w3.org/2000/svg"
 width="450.000000pt" height="450.000000pt" viewBox="0 0 450.000000 450.000000"
 preserveAspectRatio="xMidYMid meet">

<g transform="translate(0.000000,450.000000) scale(0.100000,-0.100000)"
fill="#000000" stroke="none">
<path d="M2709 4170 c-104 -18 -209 -84 -265 -165 l-35 -52 -73 5 c-59 4 -79
1 -113 -16 -113 -58 -181 -215 -170 -392 9 -136 50 -240 152 -385 l56 -80
-213 -7 c-239 -7 -339 -23 -408 -66 -56 -34 -105 -106 -121 -176 -10 -46 -18
-58 -54 -84 -95 -67 -400 -340 -532 -476 -165 -170 -407 -443 -490 -554 -71
-95 -134 -213 -164 -312 -18 -57 -24 -99 -24 -175 0 -89 3 -106 28 -157 39
-79 122 -153 195 -174 112 -33 197 -9 479 133 105 54 195 95 198 92 3 -4 -3
-69 -14 -145 -12 -77 -17 -140 -12 -142 5 -2 0 -20 -11 -40 -17 -32 -19 -49
-13 -137 7 -113 17 -135 75 -165 90 -46 657 -110 983 -110 70 0 127 4 127 8 0
5 -91 12 -202 16 -342 12 -818 66 -894 102 -34 16 -64 49 -64 69 0 5 18 18 39
28 21 9 89 58 152 109 l113 91 219 -11 218 -12 112 -104 c136 -126 211 -190
341 -289 l100 -76 70 39 71 39 100 -6 c90 -5 106 -3 153 17 57 25 102 76 102
117 0 27 20 41 130 88 101 44 75 46 431 -30 144 -31 265 -53 270 -48 8 8 112
278 159 415 21 61 27 69 69 90 66 35 101 104 101 203 0 58 -4 75 -19 89 -16
14 -18 23 -10 43 32 84 204 721 197 728 -12 11 -408 65 -591 81 -77 6 -78 7
-92 40 -24 57 -104 174 -159 233 l-53 56 8 70 c16 131 -9 255 -62 312 -30 31
-100 58 -219 83 l-105 22 37 75 c34 68 158 426 158 457 0 8 23 18 58 25 143
32 272 127 334 248 20 38 38 81 42 97 6 25 5 28 -11 21 -10 -4 -40 -10 -68
-12 -69 -7 -154 23 -300 107 -157 89 -209 114 -273 134 -67 19 -183 27 -243
16z m198 -601 c47 -11 121 -21 164 -22 44 -1 79 -6 79 -10 0 -20 -130 -398
-154 -449 -110 -232 -381 -266 -502 -62 -18 30 -27 9 -10 -23 32 -63 134 -133
192 -133 12 0 25 -4 28 -9 3 -4 -5 -39 -18 -77 -17 -53 -30 -74 -56 -91 -103
-70 -280 -54 -380 35 l-42 37 22 85 c11 47 39 140 61 208 33 102 79 272 79
293 0 3 -18 13 -41 23 -117 52 -98 202 27 213 71 6 108 -20 128 -88 9 -29 16
-67 16 -85 0 -18 5 -36 10 -39 6 -3 10 -2 10 3 0 5 29 70 65 145 l65 135 86
-34 c47 -19 124 -44 171 -55z m-910 -746 c29 -9 53 -23 53 -30 0 -9 17 -13 60
-13 58 0 61 -1 101 -45 23 -24 64 -56 93 -70 134 -65 261 -51 398 47 13 9 34
8 97 -7 45 -10 81 -20 81 -22 0 -2 -7 -14 -15 -26 -8 -12 -33 -126 -56 -252
-50 -281 -44 -261 -69 -244 -10 8 -73 52 -140 97 l-121 84 -213 -7 -213 -8 -5
227 c-3 125 -8 229 -11 232 -3 3 -29 12 -58 20 -70 19 -211 19 -274 0 -27 -9
-51 -13 -54 -10 -11 10 19 25 80 39 76 17 189 12 266 -12z m-352 -115 c-3 -35
-17 -240 -31 -457 -31 -495 -34 -508 -161 -602 -50 -37 -140 -87 -195 -108
-22 -8 -28 -8 -28 3 0 8 -5 16 -12 18 -9 3 -8 27 6 100 16 86 22 100 62 149
42 51 63 94 51 105 -3 3 -13 -8 -21 -25 -9 -17 -47 -65 -84 -108 -37 -42 -96
-115 -132 -161 l-65 -85 -140 -27 c-134 -27 -392 -88 -408 -97 -4 -2 -5 -8 -2
-12 2 -5 84 11 182 35 155 38 532 109 538 102 2 -2 0 -82 -4 -178 l-6 -175
-220 -112 c-259 -132 -325 -157 -415 -157 -81 1 -143 28 -200 90 -63 69 -83
123 -84 229 -1 240 119 432 581 930 153 165 229 238 418 400 230 198 238 203
328 204 l48 1 -6 -62z m1395 -15 c108 -22 207 -61 230 -90 29 -37 13 -49 -18
-15 -31 33 -154 76 -271 96 -41 7 -76 17 -79 24 -4 13 12 11 138 -15z m348
-247 c59 -64 162 -218 162 -243 0 -8 -13 -13 -32 -13 -18 0 -105 -25 -192 -55
-88 -30 -161 -53 -163 -51 -3 2 18 96 46 208 28 112 51 213 51 224 0 11 3 24
6 27 10 10 55 -26 122 -97z m-938 -199 c0 -2 -18 -42 -41 -88 -91 -186 -257
-605 -244 -617 10 -10 21 12 65 133 45 123 139 349 205 488 26 56 40 76 48 69
7 -5 100 -78 207 -162 107 -84 197 -154 199 -156 1 -1 -15 -49 -38 -107 -78
-200 -131 -361 -123 -369 5 -5 37 70 75 174 36 101 77 210 90 242 l25 60 98
38 c158 62 455 161 462 153 4 -3 -7 -61 -25 -128 -17 -67 -29 -124 -27 -126
12 -12 26 24 53 134 l29 120 108 -1 c148 -2 476 -52 500 -77 6 -6 -96 -409
-149 -587 -22 -73 -39 -116 -49 -118 -8 -1 -36 6 -62 18 -63 27 -120 26 -147
-1 -18 -18 -20 -29 -15 -67 11 -85 72 -187 130 -219 18 -10 16 -20 -49 -202
-38 -105 -72 -196 -76 -203 -5 -7 -26 -7 -75 1 -121 21 -439 92 -448 101 -23
23 145 718 243 1002 20 58 11 95 -10 41 -57 -148 -175 -593 -228 -858 l-38
-189 -169 -73 c-93 -40 -250 -113 -348 -163 -99 -49 -182 -88 -184 -85 -11 11
140 541 223 784 30 90 53 166 50 170 -11 10 -24 -22 -89 -219 -65 -196 -118
-372 -176 -595 -18 -66 -34 -122 -36 -124 -8 -9 -474 429 -474 446 0 7 41 118
92 248 50 129 88 238 83 243 -4 4 -10 3 -12 -3 -2 -5 -46 -116 -97 -245 l-92
-235 -60 1 c-176 2 -514 18 -514 25 0 4 23 73 51 153 l51 145 56 16 c146 40
219 84 270 159 39 58 40 89 6 123 -25 24 -30 25 -102 20 -43 -3 -87 -9 -100
-13 l-23 -7 24 64 c241 649 228 618 261 624 17 2 123 9 236 16 171 9 340 22
373 28 4 0 7 -1 7 -2z m-1254 -611 c-8 -37 -18 -71 -22 -76 -5 -4 -31 -10 -58
-14 l-48 -6 28 38 c78 104 109 141 112 134 1 -5 -4 -39 -12 -76z m297 -49
l-27 -77 -43 0 c-26 0 -43 -5 -43 -11 0 -14 147 -7 255 12 123 22 163 -6 125
-86 -39 -81 -140 -140 -296 -175 -49 -11 -124 -20 -166 -20 l-78 0 0 58 c0 31
3 94 6 138 l7 81 56 24 c65 26 153 77 196 113 17 13 31 23 33 22 1 -2 -10 -37
-25 -79z m2354 -268 c47 -21 58 -21 183 -7 24 3 25 0 28 -49 10 -181 -129
-274 -249 -166 -46 41 -74 91 -88 155 -19 84 28 109 126 67z m-2497 -122 c0
-7 -20 -69 -45 -137 -25 -68 -45 -125 -45 -126 0 -3 -109 -84 -112 -84 -2 0 4
53 14 118 9 64 17 131 17 147 1 18 10 38 21 48 11 9 20 24 20 32 0 12 14 15
65 15 47 0 65 -4 65 -13z m1550 -666 c0 -29 -49 -81 -95 -102 -26 -12 -64 -19
-107 -19 -64 0 -97 12 -60 23 9 3 71 30 137 61 66 31 121 56 122 56 2 0 3 -9
3 -19z"/>
<path d="M2106 2742 c-10 -17 67 -106 125 -144 87 -57 142 -73 244 -73 80 0
97 4 157 32 69 32 172 118 162 134 -3 5 -29 -12 -57 -37 -99 -90 -220 -127
-334 -104 -107 22 -196 79 -265 169 -14 19 -28 29 -32 23z"/>
<path d="M3670 1865 c-18 -49 -22 -75 -11 -75 6 0 13 11 17 25 8 32 15 31 39
-8 11 -18 25 -31 30 -29 14 4 36 73 32 97 -3 18 -4 18 -14 -5 -6 -14 -14 -34
-18 -45 -6 -17 -10 -14 -28 23 -24 49 -34 52 -47 17z"/>
<path d="M3660 1680 c-29 -58 -32 -60 -69 -60 -21 0 -53 -3 -71 -7 l-33 -6 54
-22 54 -21 5 -72 5 -72 33 65 34 64 71 3 72 3 -64 24 -63 24 4 69 c3 37 4 68
2 68 -2 0 -17 -27 -34 -60z"/>
</g>
</svg>
