<svg version="1.1" xmlns="http://www.w3.org/2000/svg" width="1024" height="1024">
<path d="M0 0 C337.92 0 675.84 0 1024 0 C1024 337.92 1024 675.84 1024 1024 C686.08 1024 348.16 1024 0 1024 C0 686.08 0 348.16 0 0 Z " fill="#FEFEFE" transform="translate(0,0)"/>
<path d="M0 0 C7.783 4.474 15.011 9.958 22.25 15.25 C23.016 15.809 23.781 16.369 24.57 16.945 C29.343 20.439 34.099 23.955 38.852 27.477 C41.209 29.22 43.572 30.955 45.938 32.688 C55.187 39.467 64.344 46.353 73.444 53.33 C80.09 58.409 86.83 63.342 93.655 68.178 C94.349 68.672 95.043 69.167 95.758 69.676 C96.363 70.103 96.967 70.53 97.59 70.97 C99.25 72.25 99.25 72.25 100.696 73.853 C102.662 75.62 104.001 75.807 106.602 76.172 C107.449 76.307 108.297 76.441 109.171 76.58 C110.063 76.719 110.956 76.857 111.875 77 C119.59 78.353 126.083 79.869 131.25 86.25 C131.58 87.24 131.91 88.23 132.25 89.25 C135.658 85.973 138.553 82.647 141.312 78.812 C156.182 58.798 172.995 41.589 198.438 36.625 C203.367 35.968 208.289 36.097 213.25 36.25 C212.938 38.125 212.938 38.125 212.25 40.25 C208.708 42.612 206.586 42.664 202.375 43.062 C182.743 45.337 166.444 56.827 154.25 72 C152.915 73.748 151.582 75.499 150.25 77.25 C148.096 79.968 145.922 82.671 143.75 85.375 C142.698 86.69 141.646 88.005 140.594 89.32 C139.82 90.287 139.047 91.254 138.25 92.25 C139.592 95.127 141.117 97.528 143.086 100.016 C143.65 100.734 144.214 101.452 144.795 102.192 C145.399 102.954 146.003 103.715 146.625 104.5 C150.395 109.271 154.137 114.041 157.668 118.992 C158.199 119.73 158.73 120.469 159.278 121.229 C160.283 122.635 161.275 124.049 162.253 125.474 C163.743 127.619 163.743 127.619 166.25 130.25 C168.983 130.828 168.983 130.828 171.25 130.25 C170.755 129.879 170.26 129.507 169.75 129.125 C168.25 127.25 168.25 127.25 167.875 124.188 C167.999 123.218 168.122 122.249 168.25 121.25 C173.786 117.559 181.786 118.407 188.25 119.25 C194.118 120.675 199.694 122.913 205.25 125.25 C204.763 124.171 204.275 123.092 203.773 121.98 C202.106 118.288 201.789 115.325 202.25 111.25 C203.438 108.812 203.438 108.812 205.25 107.25 C207.656 106.879 207.656 106.879 210.25 107.25 C211.988 109.086 211.988 109.086 213.562 111.625 C217.661 117.934 222.193 123.883 227.254 129.457 C229.962 133.247 231.355 137.292 233 141.625 C237.005 151.648 237.005 151.648 245.25 158.25 C247.806 159.205 250.325 159.972 252.973 160.629 C255.732 161.381 257.914 162.615 260.25 164.25 C260.91 162.93 261.57 161.61 262.25 160.25 C269.086 160.712 274.64 163.418 280.812 166.25 C282.832 167.173 284.854 168.09 286.879 169 C287.767 169.407 288.654 169.815 289.569 170.234 C292.494 171.343 295.136 171.949 298.25 172.25 C300.892 170.931 300.892 170.931 303.25 169.25 C306.706 168.083 310.06 168.083 313.688 168.062 C314.8 168.048 315.912 168.034 317.059 168.02 C320.25 168.25 320.25 168.25 322.481 169.252 C326.02 170.528 328.98 170.475 332.738 170.445 C333.441 170.442 334.145 170.44 334.869 170.437 C337.1 170.426 339.331 170.401 341.562 170.375 C343.081 170.365 344.6 170.356 346.119 170.348 C349.83 170.326 353.54 170.291 357.25 170.25 C356.737 168.259 356.224 166.268 355.711 164.277 C355.55 163.652 355.388 163.026 355.222 162.381 C354.323 158.891 353.422 155.402 352.52 151.913 C352.149 150.477 351.778 149.041 351.406 147.605 C351.221 146.889 351.036 146.173 350.845 145.436 C349.752 141.206 348.669 136.973 347.594 132.738 C340.089 100.308 340.089 100.308 323.25 72.25 C322.678 71.615 322.106 70.979 321.517 70.325 C316.51 65.044 311.259 61.558 304.875 58.125 C303.096 57.144 301.317 56.163 299.539 55.18 C298.669 54.701 297.799 54.223 296.903 53.729 C294.174 52.208 291.467 50.655 288.773 49.07 C287.976 48.601 287.179 48.132 286.357 47.649 C280.807 43.964 279.732 39.444 277.629 33.281 C276.184 30.104 275.237 28.954 272.25 27.25 C271.26 26.92 270.27 26.59 269.25 26.25 C269.25 25.59 269.25 24.93 269.25 24.25 C276.235 23.776 276.235 23.776 280.062 25.562 C282.857 28.995 283.28 32.066 283.891 36.398 C287.596 44.171 299.45 48.173 306.789 52.018 C329.197 64.037 340.236 83.21 347.578 107.01 C351.416 119.799 354.686 132.707 357.555 145.745 C358.579 150.386 359.692 154.946 361.062 159.5 C362.489 164.443 362.549 169.138 362.25 174.25 C360.27 174.58 358.29 174.91 356.25 175.25 C356.26 176.445 356.271 177.64 356.282 178.871 C356.318 183.338 356.341 187.805 356.36 192.273 C356.37 194.2 356.383 196.127 356.401 198.054 C356.425 200.837 356.437 203.619 356.445 206.402 C356.456 207.253 356.466 208.103 356.477 208.979 C356.479 221.792 352.309 232.145 343.5 241.625 C336.494 248.179 328.202 252.523 318.543 252.414 C313.328 252.041 308.202 250.901 303.25 249.25 C303.412 249.871 303.573 250.493 303.74 251.133 C304.45 255.469 304.413 259.731 304.418 264.117 C304.421 265.07 304.425 266.023 304.428 267.005 C304.433 269.017 304.435 271.029 304.435 273.042 C304.437 276.107 304.456 279.173 304.475 282.238 C304.478 284.198 304.48 286.158 304.48 288.117 C304.488 289.028 304.495 289.938 304.502 290.877 C304.484 296.052 304.085 300.388 302.25 305.25 C299.595 307.837 297.763 309.079 294.25 310.25 C293.787 325.651 295.217 340.859 296.562 356.188 C296.795 358.883 297.025 361.58 297.255 364.276 C297.813 370.788 298.379 377.3 298.949 383.811 C299.292 387.735 299.632 391.659 299.971 395.583 C301.068 408.276 302.217 420.963 303.431 433.646 C304.015 439.757 304.588 445.87 305.155 451.983 C305.577 456.54 306.002 461.097 306.427 465.654 C306.643 467.979 306.859 470.303 307.073 472.628 C307.389 476.062 307.71 479.496 308.031 482.93 C308.124 483.946 308.217 484.962 308.312 486.009 C308.831 491.51 309.475 496.974 310.241 502.447 C311.266 509.979 311.894 517.503 312.443 525.08 C313.47 539.173 314.677 553.245 316.027 567.31 C316.294 570.1 316.559 572.889 316.824 575.679 C317.897 587.004 317.897 587.004 318.997 598.326 C320.831 617.023 322.594 635.677 322.738 654.477 C322.757 655.768 322.776 657.06 322.796 658.39 C322.754 665.428 322.253 670.363 318.25 676.25 C314.301 678.571 310.759 678.799 306.25 679.25 C306.25 679.91 306.25 680.57 306.25 681.25 C306.91 681.25 307.57 681.25 308.25 681.25 C309.862 683.615 311.321 685.963 312.75 688.438 C313.186 689.186 313.623 689.935 314.072 690.706 C332.12 722.267 332.12 722.267 330.25 740.25 C328.235 746.034 324.609 749.347 319.25 752.25 C312.484 755.453 304.391 755.572 297.289 753.305 C292.477 751.007 288.729 748.343 285.25 744.25 C284.569 743.528 283.889 742.806 283.188 742.062 C278.37 735.069 276.523 727.192 275.5 718.875 C275.379 717.936 275.259 716.997 275.134 716.03 C274.347 709.378 273.941 702.76 273.875 696.062 C273.861 695.22 273.847 694.377 273.833 693.508 C273.879 687.674 273.879 687.674 275.775 685.507 C276.262 685.092 276.748 684.677 277.25 684.25 C279.553 690.699 280.315 696.614 280.562 703.438 C281.295 717.126 282.739 731.801 292.863 741.852 C297.506 745.976 301.077 746.406 307.125 746.438 C308.946 746.459 308.946 746.459 310.805 746.48 C314.093 746.26 316.304 745.667 319.25 744.25 C318.194 744.488 318.194 744.488 317.117 744.73 C311.122 745.817 304.022 746.625 298.438 743.75 C290.229 738.05 286.217 730.548 284.301 720.945 C284.042 719.424 283.796 717.9 283.562 716.375 C283.437 715.563 283.311 714.751 283.181 713.914 C282.341 708.022 281.964 702.2 281.938 696.25 C281.932 695.491 281.927 694.732 281.921 693.95 C281.971 690.192 282.117 688.45 284.25 685.25 C286.221 685.001 286.221 685.001 288.602 685.176 C289.452 685.231 290.303 685.285 291.18 685.342 C292.069 685.415 292.959 685.487 293.875 685.562 C294.772 685.624 295.669 685.685 296.594 685.748 C298.814 685.902 301.032 686.069 303.25 686.25 C303.58 684.6 303.91 682.95 304.25 681.25 C303.139 681.266 303.139 681.266 302.006 681.282 C298.608 681.324 295.21 681.349 291.812 681.375 C290.648 681.392 289.483 681.409 288.283 681.426 C270.259 681.527 270.259 681.527 264.457 675.949 C259.947 669.6 259.772 660.525 258.66 653.017 C257.242 643.692 255.424 634.445 253.625 625.188 C253.467 624.368 253.309 623.548 253.146 622.703 C252.692 620.352 252.233 618.002 251.773 615.652 C251.566 614.577 251.566 614.577 251.354 613.48 C250.636 609.758 250.636 609.758 249.25 606.25 C248.941 603.952 248.741 601.653 248.531 599.344 C248.358 597.196 248.358 597.196 247.25 595.25 C246.913 593.363 246.62 591.468 246.348 589.57 C246.179 588.413 246.011 587.255 245.838 586.062 C245.665 584.846 245.491 583.629 245.312 582.375 C244.139 567.919 244.139 567.919 240.25 554.25 C239.781 551.057 239.383 547.864 239 544.66 C238.565 540.834 238.565 540.834 237.25 537.25 C236.975 535.147 236.806 533.043 236.629 530.93 C236.282 528.113 236.282 528.113 235.375 524.887 C233.708 518.409 232.763 511.783 231.688 505.188 C231.434 503.648 231.181 502.109 230.927 500.57 C230.357 497.111 229.79 493.652 229.224 490.193 C228.331 484.739 227.431 479.285 226.53 473.832 C225.719 468.922 224.911 464.012 224.103 459.102 C223.705 456.68 223.305 454.258 222.905 451.836 C219.04 428.415 219.04 428.415 217.624 417.203 C216.623 409.294 215.298 401.454 213.836 393.619 C212.126 384.446 210.661 375.291 209.472 366.036 C208.22 356.545 206.555 347.129 204.875 337.707 C204.56 335.928 204.56 335.928 204.238 334.113 C204.048 333.054 203.858 331.995 203.661 330.904 C203.25 328.25 203.25 328.25 203.25 325.25 C201.93 325.25 200.61 325.25 199.25 325.25 C199.455 326.012 199.66 326.774 199.871 327.559 C201.505 333.822 202.627 339.814 203.25 346.25 C203.58 346.91 203.91 347.57 204.25 348.25 C204.525 350.353 204.694 352.457 204.871 354.57 C205.207 357.407 205.207 357.407 206.249 360.683 C207.612 366.095 207.594 371.453 207.645 377.008 C207.672 378.742 207.672 378.742 207.7 380.511 C207.758 384.322 207.803 388.134 207.848 391.945 C207.886 394.616 207.926 397.288 207.966 399.959 C208.061 406.279 208.146 412.599 208.228 418.919 C208.374 430.174 208.534 441.429 208.699 452.683 C208.766 457.243 208.825 461.802 208.883 466.362 C209.027 477.009 209.218 487.635 209.771 498.27 C210.44 511.339 210.395 524.405 210.383 537.488 C210.383 540.151 210.384 542.814 210.386 545.478 C210.388 551.018 210.385 556.559 210.38 562.1 C210.375 568.455 210.377 574.81 210.382 581.166 C210.387 586.685 210.387 592.204 210.385 597.723 C210.383 600.993 210.383 604.262 210.386 607.531 C210.396 621.14 210.307 634.678 209.25 648.25 C212.498 646.528 212.498 646.528 213.25 643.25 C214.504 631.695 214.387 620.069 214.364 608.463 C214.363 606.52 214.363 604.577 214.364 602.634 C214.364 597.406 214.358 592.177 214.351 586.949 C214.345 581.468 214.345 575.987 214.343 570.505 C214.34 560.147 214.332 549.788 214.322 539.429 C214.311 527.628 214.305 515.826 214.3 504.024 C214.29 479.766 214.272 455.508 214.25 431.25 C218.542 437.689 217.526 446.595 217.75 454.094 C217.791 455.336 217.831 456.578 217.873 457.857 C217.981 461.152 218.085 464.448 218.188 467.743 C218.331 472.348 218.477 476.953 218.627 481.557 C218.706 484 218.783 486.444 218.857 488.887 C219.041 494.56 219.316 500.199 219.771 505.856 C220.613 518.034 220.415 530.253 220.418 542.453 C220.419 543.807 220.421 545.161 220.423 546.515 C220.432 553.596 220.436 560.676 220.435 567.756 C220.435 574.32 220.445 580.883 220.461 587.447 C220.474 593.12 220.479 598.792 220.479 604.465 C220.479 607.837 220.481 611.209 220.492 614.581 C220.502 618.34 220.499 622.098 220.493 625.856 C220.499 626.953 220.504 628.049 220.51 629.179 C220.436 647.43 220.436 647.43 215.25 653.25 C207.84 656.283 198.732 655.644 190.875 655.812 C188.388 655.872 185.901 655.936 183.414 656.004 C182.326 656.028 181.237 656.052 180.116 656.076 C177.668 656.225 175.589 656.548 173.25 657.25 C173.25 657.91 173.25 658.57 173.25 659.25 C173.951 659.518 174.652 659.786 175.375 660.062 C178.25 661.25 178.25 661.25 180.984 662.797 C184.688 664.445 187.337 664.683 191.375 664.688 C192.574 664.707 193.773 664.726 195.008 664.746 C198.815 664.163 199.917 663.24 202.25 660.25 C203.485 658.117 203.485 658.117 204.25 656.25 C205.24 656.25 206.23 656.25 207.25 656.25 C210.232 662.056 210.712 666.773 210.625 673.25 C210.637 674.114 210.648 674.977 210.66 675.867 C210.635 681.407 210.097 685.446 207.25 690.25 C202.83 694.107 198.618 695.099 193 695.938 C187.98 696.601 187.98 696.601 183.25 698.25 C180.952 698.559 178.653 698.759 176.344 698.969 C174.196 699.142 174.196 699.142 172.25 700.25 C168.653 700.814 165.047 701.277 161.438 701.75 C158.363 702.067 158.363 702.067 156.25 703.25 C154.33 703.598 152.403 703.903 150.473 704.188 C149.32 704.36 148.167 704.533 146.979 704.711 C145.769 704.889 144.559 705.067 143.312 705.25 C140.928 705.602 138.544 705.956 136.16 706.312 C135.099 706.468 134.039 706.624 132.946 706.785 C130.163 707.195 130.163 707.195 127.25 708.25 C123.296 708.509 119.337 708.481 115.375 708.5 C114.286 708.521 113.196 708.541 112.074 708.562 C111.021 708.568 109.968 708.573 108.883 708.578 C107.923 708.587 106.962 708.597 105.973 708.606 C101.923 708.076 99.291 706.291 96.438 703.438 C94.758 700.344 94.635 698.736 95.25 695.25 C106.053 677.9 136.034 669.168 154.25 662.25 C156.085 661.525 157.918 660.796 159.75 660.062 C160.906 659.6 160.906 659.6 162.086 659.129 C165.16 657.88 168.207 656.573 171.25 655.25 C170.586 655.08 169.922 654.91 169.238 654.734 C158.353 651.747 158.353 651.747 155.147 646.415 C154.138 643.98 153.964 642.171 153.903 639.541 C153.862 638.128 153.862 638.128 153.821 636.688 C153.8 635.664 153.779 634.641 153.758 633.586 C153.694 631.351 153.631 629.117 153.566 626.882 C153.536 625.7 153.505 624.518 153.473 623.301 C152.935 603.149 151.971 583.086 150.25 563 C150.162 561.966 150.073 560.933 149.982 559.867 C149.894 558.842 149.806 557.816 149.716 556.76 C149.542 554.733 149.369 552.706 149.195 550.68 C149.111 549.703 149.028 548.726 148.941 547.72 C148.164 538.53 147.608 529.334 147.125 520.125 C146.488 507.967 146.488 507.967 145.517 495.831 C141.869 456.339 141.973 416.667 142.106 377.046 C142.129 370.063 142.139 363.08 142.149 356.097 C142.17 341.815 142.205 327.532 142.25 313.25 C140.827 313.281 140.827 313.281 139.375 313.312 C136.25 313.25 136.25 313.25 134.25 312.25 C132.232 311.998 130.21 311.775 128.188 311.562 C115.621 310.067 103.381 306.55 91.133 303.465 C85.123 301.955 79.109 300.483 73.062 299.125 C72.334 298.956 71.605 298.787 70.854 298.613 C67.087 297.767 63.394 297.119 59.551 296.738 C47.224 295.489 39.986 289.613 32.266 280.52 C29.867 277.819 27.322 275.284 24.75 272.75 C21.064 269.109 17.54 265.394 14.172 261.457 C11.691 258.608 9.129 255.835 6.562 253.062 C6.048 252.506 5.534 251.95 5.004 251.377 C2.419 248.584 -0.172 245.797 -2.77 243.016 C-8.48 236.886 -14.038 230.658 -19.459 224.27 C-22.348 220.868 -25.291 217.535 -28.312 214.25 C-32.341 209.821 -35.998 205.159 -39.66 200.428 C-43.115 195.991 -46.776 191.806 -50.578 187.66 C-56.969 180.568 -62.778 172.968 -68.657 165.451 C-72.25 160.865 -75.898 156.33 -79.648 151.871 C-81.75 149.25 -81.75 149.25 -83.664 146.348 C-85.543 143.591 -87.167 141.366 -89.75 139.25 C-92.866 138.757 -95.581 138.934 -98.719 139.199 C-104.701 139.299 -109.422 136.474 -113.668 132.418 C-116.456 129.06 -117.992 126.375 -118.375 122 C-118.331 118.21 -118.331 118.21 -120.812 116.375 C-123.638 113.276 -123.103 110.549 -122.988 106.492 C-122.75 104.25 -122.75 104.25 -121.75 102.25 C-122.678 102.147 -123.606 102.044 -124.562 101.938 C-127.75 101.25 -127.75 101.25 -129.562 100.188 C-130.75 98.25 -130.75 98.25 -130.961 94.574 C-131.543 89.462 -134.11 86.753 -137.562 83.125 C-138.635 81.959 -139.704 80.789 -140.77 79.617 C-141.278 79.06 -141.787 78.503 -142.311 77.929 C-144.383 75.511 -146.059 72.945 -147.75 70.25 C-146.732 67.297 -145.855 66.316 -143.168 64.637 C-139.242 63.044 -135.853 62.805 -131.688 62.875 C-130.993 62.863 -130.299 62.852 -129.584 62.84 C-126.223 62.859 -124.076 63.048 -121.191 64.836 C-117.692 66.863 -115.626 66.151 -111.75 65.25 C-95.622 60.17 -83.259 51.318 -71.239 39.674 C-69.025 37.556 -66.731 35.531 -64.438 33.5 C-61.458 30.837 -58.598 28.115 -55.812 25.25 C-51.122 20.503 -46.002 16.358 -40.75 12.25 C-39.85 11.545 -38.95 10.84 -38.023 10.113 C-26.744 1.58 -14.327 -6.435 0 0 Z " fill="#050505" transform="translate(451.75,186.75)"/>
<path d="M0 0 C4.093 2.076 8.132 4.243 12.164 6.433 C13.828 7.317 15.492 8.198 17.158 9.078 C20.228 10.701 23.29 12.336 26.346 13.985 C53.887 28.755 77.286 26.226 106.688 19.075 C112.918 17.608 119.191 16.389 125.477 15.183 C126.799 14.925 128.121 14.666 129.443 14.407 C161.601 8.176 194.831 5.127 227.414 9.871 C228.449 10.019 229.484 10.167 230.551 10.32 C238.48 11.691 243.721 14.62 248.914 20.933 C251.503 24.031 251.503 24.031 254.203 27.031 C261.086 34.397 266.815 42.668 272.717 50.819 C275.098 54.017 277.616 57.099 280.159 60.17 C282.115 63.159 281.823 65.719 281.477 69.183 C283.484 72.194 284.315 72.813 287.477 74.183 C287.136 75.328 287.136 75.328 286.789 76.496 C286.686 77.383 286.583 78.269 286.477 79.183 C287.453 80.206 288.458 81.202 289.477 82.183 C289.703 83.297 289.93 84.411 290.164 85.558 C291.587 89.488 291.758 89.638 295.164 91.433 C298.849 93.447 300.577 95.478 302.73 99.066 C303.333 100.049 303.935 101.032 304.556 102.045 C305.19 103.08 305.824 104.116 306.477 105.183 C307.807 107.243 309.146 109.298 310.492 111.347 C311.18 112.398 311.868 113.448 312.577 114.53 C313.286 115.612 313.996 116.694 314.727 117.808 C316.239 120.118 317.75 122.428 319.262 124.738 C319.63 125.301 319.998 125.863 320.377 126.443 C328.1 138.249 335.718 150.12 343.284 162.027 C348.634 170.444 354.042 178.821 359.477 187.183 C360.643 188.98 361.81 190.777 362.977 192.574 C365.259 196.087 367.541 199.601 369.824 203.113 C370.288 203.827 370.753 204.541 371.231 205.276 C372.303 206.918 373.389 208.552 374.477 210.183 C374.566 212.527 374.566 212.527 373.477 215.183 C371.207 217.326 368.645 218.976 366.039 220.683 C364.486 221.738 362.934 222.794 361.383 223.851 C360.172 224.668 360.172 224.668 358.938 225.501 C354.913 228.252 350.98 231.126 347.039 233.996 C345.54 235.081 344.04 236.166 342.539 237.25 C341.843 237.753 341.147 238.255 340.43 238.774 C337.805 240.668 335.178 242.558 332.539 244.433 C331.443 245.214 331.443 245.214 330.324 246.011 C322.998 250.658 309.999 249.229 301.853 247.687 C297.546 246.606 293.334 245.259 289.105 243.91 C282.729 241.884 276.249 240.403 269.727 238.933 C268.102 238.565 268.102 238.565 266.445 238.189 C264.396 237.726 262.346 237.267 260.296 236.811 C258.502 236.411 256.709 236.007 254.917 235.597 C250.839 234.666 246.817 233.899 242.664 233.371 C233.444 232.007 224.486 229.526 215.477 227.183 C207.878 225.23 200.251 223.429 192.602 221.683 C191.165 221.35 191.165 221.35 189.699 221.01 C185.577 220.064 181.48 219.143 177.297 218.511 C168.253 217.047 163.619 213.897 157.477 207.183 C156.552 206.202 155.626 205.222 154.699 204.242 C151.911 201.264 149.189 198.231 146.477 195.183 C145.253 193.814 145.253 193.814 144.004 192.418 C142.156 190.344 140.313 188.267 138.477 186.183 C138.807 185.523 139.137 184.863 139.477 184.183 C139.974 178.741 140.288 173.837 137.852 168.871 C136.676 167.54 136.676 167.54 135.477 166.183 C134.948 165.553 134.42 164.923 133.875 164.273 C132.433 162.554 130.966 160.862 129.477 159.183 C130.549 159.224 131.622 159.266 132.727 159.308 C137.002 159.241 137.002 159.241 140.477 157.183 C144.427 151.821 144.38 145.563 143.477 139.183 C141.539 134.362 138.799 131.065 134.477 128.183 C134.477 127.523 134.477 126.863 134.477 126.183 C138.943 125.944 142.281 125.912 146.414 127.683 C150.631 129.422 154.977 130.257 159.477 129.183 C163.599 125.966 166.047 121.342 168.727 116.933 C169.185 116.188 169.644 115.443 170.117 114.675 C171.242 112.848 172.36 111.016 173.477 109.183 C182.247 112.317 185.907 118.657 189.996 126.66 C192.019 130.108 194.267 131.849 197.477 134.183 C200.391 138.554 199.918 142.777 200.133 147.933 C200.238 151.328 200.238 151.328 202.477 154.183 C202.81 160.517 202.81 160.517 201.477 163.183 C200.989 167.861 201.594 170.804 203.477 175.121 C205.504 179.96 206.404 182.954 205.477 188.183 C203.953 190.409 202.29 192.245 200.387 194.156 C198.467 196.194 197.219 198.226 195.789 200.621 C193.852 203.299 193.043 204.077 189.75 204.695 C187.679 204.771 185.607 204.823 183.535 204.851 C178.669 205.379 174.987 207.841 171.477 211.183 C171.477 211.843 171.477 212.503 171.477 213.183 C174.356 212.74 175.613 212.071 177.914 210.183 C181.171 207.818 184.025 207.987 187.977 207.933 C192.573 207.808 192.573 207.808 196.406 205.597 C197.883 203.574 197.883 203.574 199.137 201.386 C201.004 198.315 203.467 196.089 206.059 193.629 C209.319 190.305 208.795 186.547 208.777 182.132 C208.391 178.348 207.065 175.604 205.375 172.242 C203.108 167.048 204.507 162.231 206.477 157.183 C216.492 158.471 225.893 159.897 232.457 168.234 C234.23 171.624 233.871 174.433 233.477 178.183 C232.817 178.183 232.157 178.183 231.477 178.183 C231.25 177.111 231.023 176.038 230.789 174.933 C229.316 170.725 228.317 169.365 224.477 167.183 C221.267 166.848 221.267 166.848 218.477 167.183 C217.975 170.515 217.975 170.515 218.477 174.183 C221.343 176.679 221.343 176.679 224.477 178.183 C222.477 182.183 222.477 182.183 221.289 183.996 C219.949 187.604 220.309 189.497 221.477 193.183 C224.245 196.155 227.274 198.693 230.477 201.183 C229.817 202.029 229.157 202.874 228.477 203.746 C226.132 207.775 225.753 209.598 226.477 214.183 C228.938 219.17 232.458 222.767 237.477 225.183 C241.134 225.803 244.776 225.984 248.477 226.183 C250.186 226.38 251.895 226.588 253.602 226.808 C255.52 226.994 255.52 226.994 257.477 227.183 C258.677 226.207 258.677 226.207 258.562 224.389 C258.491 221.882 258.397 219.377 258.289 216.871 C258.27 216.003 258.252 215.134 258.232 214.24 C258.015 209.127 258.015 209.127 255.738 204.64 C253.272 203.052 251.377 202.506 248.477 202.183 C248.509 201.17 248.541 200.157 248.574 199.113 C248.582 194.979 248.371 191.237 247.477 187.183 C245.286 185.051 243.211 183.988 240.492 182.625 C238.477 181.183 238.477 181.183 237.836 178.898 C237.763 177.17 237.712 175.44 237.684 173.711 C237.329 169.379 235.349 166.36 232.477 163.183 C229.963 161.159 227.353 159.635 224.477 158.183 C223.383 157.626 222.29 157.069 221.164 156.496 C217.096 155.048 213.199 154.381 208.93 153.808 C206.084 153.083 205.061 152.659 203.477 150.183 C203.211 147.109 203.211 147.109 203.227 143.496 C202.857 136.021 200.767 133.139 195.477 128.183 C192.416 124.5 190.477 122.162 190.477 117.183 C195.102 113.965 198.865 112.281 204.559 112.445 C208.435 113.426 211.385 115.487 214.664 117.683 C222.322 122.755 228.225 123.716 237.477 122.183 C242.761 120.844 245.474 118.614 248.414 114.058 C251.026 109.366 251.589 106.542 251.539 101.058 C251.526 99.136 251.526 99.136 251.512 97.175 C251.5 96.188 251.489 95.201 251.477 94.183 C250.39 94.162 250.39 94.162 249.281 94.14 C242.589 93.81 239.032 93.205 234.477 88.183 C232.522 85.011 232.197 82.496 232.098 78.797 C232.064 77.776 232.029 76.756 231.994 75.705 C231.955 74.116 231.955 74.116 231.914 72.496 C231.854 70.388 231.791 68.279 231.723 66.172 C231.699 65.239 231.675 64.306 231.65 63.345 C231.713 61.204 231.713 61.204 230.477 60.183 C228.737 60.107 226.998 60.036 225.258 59.994 C216.905 59.758 210.929 58.112 203.477 54.183 C195.492 51.02 185.786 51.223 177.477 53.183 C177.477 53.843 177.477 54.503 177.477 55.183 C179.346 55.187 179.346 55.187 181.254 55.191 C191.08 55.362 199.288 56.343 208.423 60.016 C215.091 62.628 221.298 63.16 228.477 63.183 C228.486 63.813 228.495 64.443 228.505 65.092 C228.559 67.977 228.643 70.861 228.727 73.746 C228.741 74.736 228.755 75.727 228.77 76.748 C228.979 83.058 229.708 87.056 233.477 92.183 C238.162 95.92 242.576 96.769 248.477 97.183 C249.1 106.914 249.1 106.914 246.789 111.621 C242.86 115.975 239.67 118.784 233.727 119.527 C225.809 119.908 221.292 118.635 214.914 113.91 C209.118 109.804 203.412 109.318 196.477 110.183 C193.943 111.294 191.826 112.697 189.477 114.183 C186.52 114.183 185.604 113.292 183.352 111.371 C179.951 108.783 176.442 107.021 172.602 105.183 C161.904 100.006 161.904 100.006 157.477 97.183 C156.539 94.058 156.539 94.058 156.203 92.183 C155.214 89.459 153.468 88.09 151.414 86.058 C146.338 80.137 146.877 74.426 146.836 67.018 C146.713 59.2 145.006 53.663 140.477 47.183 C140.022 46.503 139.567 45.822 139.098 45.121 C134.623 39.205 128.024 35.04 120.852 33.308 C120.068 33.267 119.284 33.226 118.477 33.183 C119.156 36.374 119.156 36.374 121.918 37.472 C122.948 37.913 123.978 38.354 125.039 38.808 C133.192 42.71 139.176 48.641 142.477 57.183 C143.416 60.879 143.604 64.459 143.716 68.262 C144.067 78.973 146.267 85.172 153.477 93.183 C153.147 93.843 152.817 94.503 152.477 95.183 C151.692 94.713 150.907 94.242 150.098 93.757 C137.677 86.115 137.677 86.115 123.477 85.183 C117.07 86.915 112.913 89.343 108.477 94.183 C107.487 94.183 106.497 94.183 105.477 94.183 C105.523 93.242 105.569 92.301 105.617 91.332 C105.653 90.086 105.689 88.841 105.727 87.558 C105.773 86.328 105.819 85.099 105.867 83.832 C105.025 75.967 98.604 71.034 93.227 65.746 C92.501 65.021 91.775 64.296 91.027 63.548 C86.919 59.473 82.699 55.601 78.316 51.825 C76.092 49.84 74.055 47.724 72.014 45.554 C66.006 39.192 60.256 35.195 51.918 32.293 C49.222 31.068 47.822 29.745 45.852 27.558 C44.201 25.657 44.201 25.657 42.477 24.183 C41.487 24.183 40.497 24.183 39.477 24.183 C43.314 29.79 46.828 34.735 53.621 36.851 C62.16 39.569 67.045 45.343 73.031 51.689 C74.796 53.513 76.661 55.174 78.602 56.808 C81.92 59.622 84.986 62.651 88.039 65.746 C91.134 68.879 94.225 71.917 97.602 74.746 C100.477 77.183 100.477 77.183 101.477 79.183 C101.547 81.224 101.561 83.267 101.539 85.308 C101.53 86.404 101.521 87.5 101.512 88.629 C101.5 89.472 101.489 90.315 101.477 91.183 C99.992 91.678 99.992 91.678 98.477 92.183 C99.118 95.263 99.118 95.263 101.297 96.14 C102.438 96.564 102.438 96.564 103.602 96.996 C111.188 100.18 116.068 104.684 119.477 112.183 C119.727 115.121 119.727 115.121 119.477 117.183 C116.704 116.091 114.103 114.981 111.477 113.558 C104.79 110.668 96.621 111.639 89.727 113.308 C87.578 113.593 87.578 113.593 85.477 113.183 C82.941 110.982 80.963 108.572 78.867 105.949 C76.401 103.096 73.942 101.141 70.852 98.996 C64.947 94.897 60.214 90.348 55.664 84.808 C53.747 82.152 53.747 82.152 51.477 81.183 C51.477 80.523 51.477 79.863 51.477 79.183 C50.417 79.392 50.417 79.392 49.336 79.605 C45.634 79.059 44.462 77.328 42.226 74.457 C41.731 73.789 41.236 73.121 40.727 72.433 C40.209 71.758 39.691 71.083 39.157 70.388 C38.098 69.002 37.045 67.611 36 66.215 C34.582 64.324 33.144 62.452 31.695 60.586 C25.477 52.503 25.477 52.503 25.477 50.183 C26.477 49.183 27.477 48.183 28.477 47.183 C30.665 43.844 30.656 41.12 30.477 37.183 C29.487 36.688 29.487 36.688 28.477 36.183 C28.167 35.028 27.858 33.873 27.539 32.683 C27.188 31.528 26.838 30.373 26.477 29.183 C23.177 28.083 20.636 28.016 17.164 27.996 C15.499 27.974 15.499 27.974 13.801 27.953 C10.369 28.191 7.701 29.033 4.477 30.183 C1.102 30.308 1.102 30.308 -1.523 30.183 C0.736 26.795 1.648 26.502 5.352 25.183 C8.88 23.919 11.569 22.563 14.477 20.183 C14.2 18.242 14.2 18.242 13.477 16.183 C10.155 13.969 8.455 13.762 4.539 13.433 C2.979 13.286 2.979 13.286 1.387 13.136 C-1.65 13.185 -2.892 13.843 -5.523 15.183 C-7.449 15.207 -7.449 15.207 -9.523 14.183 C-11.399 12.091 -13.057 10.062 -14.711 7.808 C-15.161 7.218 -15.612 6.627 -16.076 6.019 C-18.02 3.431 -19.493 1.273 -20.523 -1.817 C-13.023 -4.317 -7.032 -3.369 0 0 Z " fill="#FEFEFE" transform="translate(332.5234069824219,258.8167724609375)"/>
<path d="M0 0 C1.178 -0.039 1.178 -0.039 2.379 -0.078 C3.058 0.03 3.738 0.138 4.438 0.25 C5.097 1.24 5.758 2.23 6.438 3.25 C5.19 3.414 5.19 3.414 3.918 3.582 C2.831 3.741 1.745 3.899 0.625 4.062 C-0.454 4.213 -1.533 4.364 -2.645 4.52 C-5.627 5.266 -6.705 5.871 -8.562 8.25 C-7.903 7.92 -7.242 7.59 -6.562 7.25 C-3.45 6.936 -0.336 6.739 2.785 6.531 C5.358 6.539 5.358 6.539 6.438 5.25 C8.059 5.125 9.686 5.074 11.312 5.062 C12.197 5.048 13.081 5.034 13.992 5.02 C16.438 5.25 16.438 5.25 19.438 7.25 C19.912 6.631 20.386 6.013 20.875 5.375 C26.818 0.446 35.541 0.886 42.938 0.875 C44.266 0.838 44.266 0.838 45.621 0.801 C53.361 0.767 59.226 2.79 65.375 7.5 C68.048 11.064 68.625 13.891 69.438 18.25 C70.146 18.088 70.855 17.925 71.586 17.758 C74.475 17.243 77.131 17.117 80.062 17.125 C81.004 17.122 81.945 17.12 82.914 17.117 C85.438 17.25 85.438 17.25 88.438 18.25 C83.624 14.432 78.331 14.549 72.438 14.25 C73.637 12.281 73.637 12.281 75.438 10.25 C80.238 9.126 84.45 9.756 88.812 11.938 C93.769 16.304 97.172 20.306 97.773 26.973 C98.005 37.92 97.415 47.227 89.625 55.625 C89 56.21 88.375 56.795 87.73 57.398 C86.157 59.218 86.157 59.218 86.711 61.742 C86.951 62.57 87.19 63.397 87.438 64.25 C88.175 70.573 87.104 73.973 83.363 79.133 C79.857 82.987 73.935 88.074 68.492 88.348 C65.465 88.299 65.465 88.299 62.438 88.25 C61.655 93.17 61.261 97.944 61.121 102.934 C61.09 103.984 61.09 103.984 61.058 105.056 C60.993 107.266 60.934 109.477 60.875 111.688 C60.832 113.197 60.788 114.707 60.744 116.217 C60.638 119.894 60.536 123.572 60.438 127.25 C62.418 126.92 64.398 126.59 66.438 126.25 C66.933 128.725 66.933 128.725 67.438 131.25 C57.499 140.568 48.774 142.647 35.203 142.527 C27.512 141.961 21.292 139.011 15.652 133.77 C14.438 132.25 14.438 132.25 13.875 129.5 C14.438 127.25 14.438 127.25 16.438 125.25 C19.062 125.125 19.062 125.125 21.438 125.25 C21.107 123.6 20.778 121.95 20.438 120.25 C19.602 120.138 19.602 120.138 18.75 120.023 C11.578 118.788 6.371 116.035 1.863 110.219 C-4.762 100.043 -4.149 85.446 -1.809 73.84 C-1.035 70.607 -0.099 67.426 0.864 64.245 C1.919 60.576 2.722 56.847 3.562 53.125 C4.629 48.412 5.831 43.814 7.438 39.25 C6.664 39.224 5.891 39.198 5.094 39.172 C-3.678 38.694 -10.012 37.482 -16.062 30.812 C-19.77 25.414 -19.507 19.534 -18.562 13.25 C-16.246 8.153 -12.099 4.482 -7.562 1.25 C-4.786 0.324 -2.886 0.057 0 0 Z " fill="#050505" transform="translate(657.5625,88.75)"/>
<path d="M0 0 C2.967 1.823 5.769 3.805 8.594 5.844 C9.863 6.727 11.134 7.609 12.406 8.488 C22.475 15.482 32.334 22.762 42.182 30.062 C44.578 31.832 46.981 33.593 49.387 35.352 C58.123 41.743 66.758 48.239 75.277 54.917 C80.652 59.129 86.095 63.233 91.602 67.27 C92.259 67.789 92.916 68.309 93.594 68.844 C93.594 69.174 93.594 69.504 93.594 69.844 C92.83 69.864 92.067 69.883 91.281 69.904 C62.412 70.575 62.412 70.575 33.844 74.449 C28.392 75.405 24.321 75.88 19.469 72.969 C14.866 68.495 8.99 61.66 8.312 55.137 C8.66 51.066 10.038 48.669 12.094 45.156 C14.834 40.774 14.834 40.774 15.594 35.844 C13.261 35.801 10.927 35.803 8.594 35.844 C8.264 36.174 7.934 36.504 7.594 36.844 C4.469 37.344 4.469 37.344 0.594 36.844 C-1.426 35.24 -3.048 33.522 -4.73 31.57 C-7.296 28.927 -9.301 27.928 -12.984 27.648 C-14.307 27.683 -14.307 27.683 -15.656 27.719 C-16.994 27.746 -16.994 27.746 -18.359 27.773 C-19.035 27.797 -19.71 27.82 -20.406 27.844 C-20.901 29.329 -20.901 29.329 -21.406 30.844 C-20.67 30.797 -19.934 30.751 -19.176 30.703 C-11.167 30.407 -11.167 30.407 -7.469 32.531 C-5.406 34.844 -5.406 34.844 -3.844 37.594 C-0.736 40.463 0.692 40.161 4.844 40.156 C6.762 40.076 8.679 39.979 10.594 39.844 C9.523 42.609 8.432 45.13 6.969 47.719 C4.827 52.586 4.797 55.784 6.73 60.781 C9.571 66.864 12.143 70.95 17.594 74.844 C17.594 75.504 17.594 76.164 17.594 76.844 C14.99 77.347 12.386 77.847 9.781 78.344 C9.043 78.487 8.305 78.63 7.545 78.777 C4.516 79.353 1.685 79.844 -1.406 79.844 C-1.623 79.055 -1.839 78.266 -2.062 77.453 C-3.167 74.643 -3.167 74.643 -5.875 73.734 C-6.875 73.523 -7.876 73.312 -8.906 73.094 C-9.974 72.866 -11.041 72.637 -12.141 72.402 C-16.551 71.648 -20.942 71.13 -25.406 70.844 C-25.54 67.52 -25.511 66.04 -23.906 63.031 C-22.057 59.101 -21.646 56.113 -22.406 51.844 C-24.816 47.023 -27.572 44.217 -32.406 41.844 C-36.069 41.243 -39.699 40.976 -43.406 40.844 C-43.406 42.164 -43.406 43.484 -43.406 44.844 C-42.815 44.809 -42.223 44.774 -41.613 44.738 C-36.675 44.569 -33.371 44.559 -29.406 47.844 C-26.435 50.735 -25.487 52.195 -24.969 56.344 C-25.434 60.064 -26.514 61.69 -28.406 64.844 C-28.824 68.47 -28.824 68.47 -28.406 71.844 C-25.222 75.028 -20.764 74.595 -16.436 74.967 C-12.07 75.415 -8.894 76.109 -5.406 78.844 C-5.406 79.504 -5.406 80.164 -5.406 80.844 C-54.522 93.188 -54.522 93.188 -77.406 82.844 C-79.971 80.279 -80.13 78.186 -80.844 74.719 C-81.311 72.623 -81.311 72.623 -83.406 70.844 C-85.412 70.562 -85.412 70.562 -87.656 70.656 C-88.464 70.668 -89.273 70.679 -90.105 70.691 C-92.557 70.787 -92.557 70.787 -95.469 71.594 C-99.809 71.963 -102.74 70.012 -106.406 67.844 C-106.406 67.184 -106.406 66.524 -106.406 65.844 C-105.852 65.674 -105.298 65.503 -104.728 65.328 C-90.294 60.731 -78.403 53.126 -67.406 42.844 C-66.784 42.268 -66.162 41.693 -65.521 41.1 C-59.561 35.584 -53.658 30.01 -47.805 24.383 C-14.814 -7.118 -14.814 -7.118 0 0 Z " fill="#FEFEFE" transform="translate(448.40625,191.15625)"/>
<path d="M0 0 C10.247 -1.076 10.247 -1.076 14.367 1.453 C15.701 2.688 17.005 3.956 18.277 5.254 C21.605 8.627 25.724 9.937 30.125 11.375 C31.752 11.912 33.376 12.454 35 13 C36.036 13.348 37.073 13.696 38.141 14.055 C46.365 17.094 46.365 17.094 48.219 19.738 C48.846 21.481 49.424 23.24 50 25 C53.067 27.296 53.067 27.296 56 29 C56 29.66 56 30.32 56 31 C57.32 31.33 58.64 31.66 60 32 C59.732 33.022 59.464 34.044 59.188 35.098 C58.982 39.374 59.677 40.684 62.468 43.832 C63.226 44.626 63.226 44.626 64 45.438 C64.508 46.001 65.016 46.564 65.54 47.145 C66.553 48.267 67.574 49.382 68.604 50.489 C70.374 52.405 72.061 54.387 73.75 56.375 C74.83 57.586 75.913 58.795 77 60 C77.491 60.568 77.982 61.137 78.488 61.723 C87.517 71.558 100.751 78.132 113 83 C113.101 90.314 113.171 97.628 113.22 104.942 C113.24 107.43 113.267 109.918 113.302 112.406 C113.35 115.983 113.373 119.559 113.391 123.137 C113.411 124.248 113.432 125.36 113.453 126.505 C113.455 134.239 113.455 134.239 111.115 138.149 C98.02 149.607 77.269 148.421 61 148.188 C59.146 148.172 57.292 148.159 55.438 148.146 C50.958 148.114 46.479 148.062 42 148 C42 147.34 42 146.68 42 146 C43.809 144.695 43.809 144.695 46.438 143.125 C51.743 139.85 56.852 136.357 61.938 132.75 C62.671 132.231 63.404 131.711 64.16 131.176 C65.53 130.203 66.895 129.222 68.253 128.232 C70 127 70 127 72.504 125.578 C74.296 123.971 74.296 123.971 74.602 120.879 C73.78 115.584 71.405 112.275 68.375 107.938 C67.176 106.16 65.978 104.381 64.781 102.602 C64.157 101.683 63.533 100.764 62.891 99.817 C59.796 95.206 56.84 90.508 53.875 85.812 C47.97 76.507 42.007 67.24 36 58 C35.229 56.813 35.229 56.813 34.442 55.603 C32.242 52.217 30.041 48.832 27.84 45.448 C23.9 39.388 19.963 33.325 16.045 27.251 C13.683 23.591 11.306 19.941 8.906 16.305 C8.399 15.532 7.892 14.76 7.37 13.964 C6.397 12.483 5.421 11.005 4.439 9.531 C4.003 8.864 3.567 8.198 3.117 7.512 C2.732 6.929 2.346 6.346 1.949 5.745 C0.92 3.852 0.434 2.103 0 0 Z " fill="#FEFEFE" transform="translate(638,351)"/>
<path d="M0 0 C5.102 0.683 9.521 2.82 14.188 4.875 C16.074 5.696 17.961 6.516 19.848 7.336 C20.846 7.77 21.843 8.204 22.872 8.651 C26.071 10.031 29.281 11.383 32.496 12.727 C46.875 18.738 61.066 25.014 75 32 C74.388 29.322 73.641 27.503 71.448 25.781 C66.221 22.553 60.875 20.059 55.188 17.75 C54.343 17.399 53.498 17.049 52.627 16.688 C49.436 15.37 46.276 14.092 43 13 C43 12.34 43 11.68 43 11 C47.926 8.185 52.46 8.237 58 9 C69.949 12.694 78.581 18.281 84.68 29.262 C89.569 39.402 91.894 48.554 88.562 59.5 C84.959 68.573 77.356 75.809 69.062 80.75 C58.653 84.886 47.207 81.634 37.438 77.488 C19.871 69.73 6.876 59.137 -5 44 C-6.016 42.829 -7.036 41.662 -8.062 40.5 C-10 38 -10 38 -10 35 C-8.865 33.865 -7.723 32.734 -6.559 31.629 C-0.028 24.804 7 14.665 7 5 C3.535 3.02 3.535 3.02 0 1 C0 0.67 0 0.34 0 0 Z " fill="#FEFEFE" transform="translate(712,351)"/>
<path d="M0 0 C7.225 -0.521 11.411 2.772 17 7 C19.43 9.125 21.219 11.313 23 14 C23.547 14.782 24.093 15.565 24.656 16.371 C28.762 23.198 29.304 28.807 29.312 36.562 C29.326 43.738 29.703 47.94 34.5 53.438 C35.315 54.199 36.129 54.961 36.969 55.746 C39 58 39 58 39.215 61.004 C39.669 64.04 39.669 64.04 41.717 65.224 C44.131 66.423 46.567 67.481 49.062 68.5 C55.052 71.025 60.188 73.569 65.209 77.748 C67.203 79.142 68.579 79.747 71 80 C72.011 79.361 73.021 78.721 74.062 78.062 C78.857 75.132 83.542 75.123 89 76 C93.802 77.745 97.871 80.072 101.812 83.312 C106.99 86.053 112.27 85.599 118 85 C122.819 83.394 125.128 81.148 128 77 C129.284 74.431 129.33 72.234 129.562 69.375 C129.646 68.372 129.73 67.369 129.816 66.336 C129.877 65.565 129.938 64.794 130 64 C128.845 64.103 127.69 64.206 126.5 64.312 C121.437 64.295 117.646 62.485 114 59 C109.488 52.962 109.5 47.937 109.75 40.562 C109.768 39.545 109.786 38.527 109.805 37.479 C109.852 34.985 109.917 32.493 110 30 C109.187 30.07 108.373 30.139 107.535 30.211 C100.062 30.564 94.737 29.847 87.875 27.062 C78.386 23.237 69.133 23.021 59 23 C59 21.68 59 20.36 59 19 C71.152 16.201 81.305 18.262 92.297 23.602 C96.477 25.18 99.898 25.477 104.312 25.562 C111.743 25.743 111.743 25.743 114 28 C114.255 30.243 114.255 30.243 114.273 33.016 C114.294 34.02 114.315 35.024 114.336 36.059 C114.362 38.17 114.38 40.282 114.391 42.395 C114.532 48.547 114.821 52.349 119 57 C122.29 59.193 123.767 59.323 127.625 59.562 C132.902 59.902 132.902 59.902 134 61 C134.739 68.683 134.885 75.553 130.566 82.16 C126.613 86.804 122.05 89.586 115.953 90.414 C106.824 90.934 101.855 89.316 94.298 84.228 C89.823 81.281 86.515 79.937 81.023 80.484 C78.307 81.177 76.234 82.324 74 84 C73.34 84 72.68 84 72 84 C73.901 89.368 76.41 92.937 80.281 97.105 C80.848 97.731 81.416 98.356 82 99 C82.556 99.592 83.111 100.183 83.684 100.793 C85.537 103.9 85.446 106.535 85.562 110.125 C85.434 115.12 85.434 115.12 88 119 C90.133 119.476 92.283 119.882 94.438 120.25 C104.072 122.218 112.382 125.664 118 134 C119.867 137.139 120.136 139.313 120.125 142.938 C120.36 146.122 120.469 147.492 122.805 149.727 C124.827 150.957 126.853 152.005 129 153 C130 154 130 154 130.098 157.379 C130.091 158.773 130.079 160.168 130.062 161.562 C130.058 162.273 130.053 162.984 130.049 163.717 C130.037 165.478 130.019 167.239 130 169 C131.093 169.082 132.186 169.165 133.312 169.25 C137 170 137 170 138.887 171.461 C140.623 175.422 140.656 179.342 140.812 183.625 C140.863 184.496 140.914 185.368 140.967 186.266 C141.186 191.062 141.186 191.062 141 193 C140.34 193.66 139.68 194.32 139 195 C136.871 194.831 134.742 194.641 132.629 194.332 C129.991 193.951 129.991 193.951 127.277 193.949 C119.653 193.745 115.354 191.388 110 186 C107.506 182.976 107.058 181.457 106.562 177.562 C107.073 173.404 108.448 171.269 111 168 C110.446 167.529 109.891 167.059 109.32 166.574 C108.234 165.64 108.234 165.64 107.125 164.688 C106.406 164.073 105.686 163.458 104.945 162.824 C103 161 103 161 101 158 C101.211 152.402 102.727 149.329 106 145 C105.216 144.711 104.433 144.423 103.625 144.125 C101 143 101 143 99 141 C98.812 137.438 98.812 137.438 99 134 C100 133 100 133 102.688 132.625 C107.217 133.138 108.949 134.665 112 138 C112.875 141.812 112.875 141.812 113 145 C113.66 145 114.32 145 115 145 C114.382 140.252 113.768 136.178 111.125 132.125 C104.342 127.513 95.917 125.827 88 124 C86.922 131.583 86.483 136.914 90.047 143.754 C91.897 148.113 92.019 152.407 91 157 C89.068 160.13 86.66 162.483 84 165 C83.066 166.068 82.147 167.15 81.25 168.25 C80.507 169.158 79.765 170.065 79 171 C78.587 171.708 78.175 172.415 77.75 173.145 C76 175 76 175 73.109 175.434 C72.001 175.435 70.892 175.436 69.75 175.438 C63.378 175.7 60.857 177.073 56 181 C53.816 180.648 53.816 180.648 52 180 C54.082 175.165 57.169 172.96 62 171 C64.037 170.824 66.081 170.723 68.125 170.688 C72.382 170.559 72.382 170.559 75.891 168.418 C77.41 166.391 77.41 166.391 78.688 164.18 C80.036 161.94 81.537 160.347 83.375 158.5 C85.921 155.532 86.774 153.209 86.477 149.172 C85.722 145.733 84.298 142.62 82.895 139.402 C81.637 136.026 81.629 133.565 82 130 C82.33 129.34 82.66 128.68 83 128 C83.341 122.67 83.341 122.67 81 118 C80.829 115.712 80.734 113.419 80.688 111.125 C80.453 105.637 80.453 105.637 77.75 101 C76.842 100.34 75.935 99.68 75 99 C71.945 95.64 69.741 92.607 67.688 88.562 C65.082 83.667 61.567 80.135 57 77 C56.34 77 55.68 77 55 77 C53.61 78.794 53.61 78.794 52.25 81.121 C51.724 81.974 51.198 82.827 50.656 83.705 C49.836 85.058 49.836 85.058 49 86.438 C47.921 88.21 46.838 89.979 45.75 91.746 C45.27 92.537 44.791 93.328 44.297 94.142 C43 96 43 96 41 97 C35.452 97.599 31.091 96.908 25.996 94.734 C22.719 93.529 19.466 93.309 16 93 C15.67 93.66 15.34 94.32 15 95 C15.33 93.68 15.66 92.36 16 91 C14.36 90.814 14.36 90.814 12.688 90.625 C9 90 9 90 6 88 C5.297 85.531 5.297 85.531 4.75 82.5 C3.044 74.967 -0.47 68.354 -7 64 C-7 62.68 -7 61.36 -7 60 C-7.66 59.67 -8.32 59.34 -9 59 C-2.773 53.24 3.506 50.214 12.145 50.441 C20.019 51.982 27.239 56.877 34 61 C32.463 58.311 30.912 55.894 28.938 53.5 C25.075 48.517 24.728 43.897 24.562 37.75 C24.031 26.075 21.295 18.12 12.75 9.812 C8.698 7.142 4.38 5.075 0 3 C0 2.01 0 1.02 0 0 Z " fill="#171718" transform="translate(451,292)"/>
<path d="M0 0 C0.021 1.299 0.041 2.599 0.062 3.938 C0.718 10.297 4.599 14.599 9 19 C9.087 20.562 9.107 22.127 9.098 23.691 C9.094 24.636 9.091 25.58 9.088 26.553 C9.075 28.043 9.075 28.043 9.062 29.562 C9.058 30.56 9.053 31.557 9.049 32.584 C9.037 35.056 9.021 37.528 9 40 C9.66 40 10.32 40 11 40 C11.278 38.762 11.278 38.762 11.562 37.5 C13.495 32.795 15.978 29.163 20 26 C23.131 25.114 24.694 25.384 28 26 C30.702 30.053 30.887 33.241 30 38 C27.047 43.569 21.916 47.087 16 49 C14.626 49.072 13.251 49.114 11.875 49.125 C8.011 49.57 8.011 49.57 6.48 51.926 C5.502 53.66 4.549 55.408 3.617 57.168 C-1.004 65.261 -7.87 71.554 -16 76 C-16.611 76.339 -17.222 76.678 -17.852 77.027 C-24.15 79.935 -31.223 79.74 -38 79 C-41.625 77.312 -41.625 77.312 -44 75 C-45.083 73.948 -45.083 73.948 -46.188 72.875 C-53.293 61.604 -52.07 48.103 -49.357 35.633 C-48.49 31.899 -47.573 28.179 -46.624 24.465 C-46.077 22.304 -45.563 20.139 -45.07 17.965 C-43.686 11.98 -43.686 11.98 -43 10 C-39.33 8.165 -34.952 9.38 -31 10 C-27.875 11.062 -27.875 11.062 -26 12 C-27.119 8.274 -27.119 8.274 -30 6 C-33.839 5.858 -37.32 5.822 -41 7 C-41 5.68 -41 4.36 -41 3 C-39.867 2.97 -39.867 2.97 -38.712 2.94 C-35.224 2.844 -31.737 2.734 -28.25 2.625 C-27.063 2.594 -25.876 2.563 -24.652 2.531 C-17.745 2.305 -11.116 1.687 -4.319 0.416 C-2 0 -2 0 0 0 Z " fill="#FEFEFE" transform="translate(710,124)"/>
<path d="M0 0 C0 0.99 0 1.98 0 3 C-0.66 3 -1.32 3 -2 3 C-2 3.66 -2 4.32 -2 5 C-0.948 5.402 -0.948 5.402 0.125 5.812 C3 7 3 7 5.734 8.547 C9.438 10.195 12.087 10.433 16.125 10.438 C17.324 10.457 18.523 10.476 19.758 10.496 C23.565 9.913 24.667 8.99 27 6 C28.235 3.867 28.235 3.867 29 2 C29.99 2 30.98 2 32 2 C34.982 7.806 35.462 12.523 35.375 19 C35.387 19.864 35.398 20.727 35.41 21.617 C35.385 27.157 34.847 31.196 32 36 C27.58 39.857 23.368 40.849 17.75 41.688 C12.73 42.351 12.73 42.351 8 44 C5.702 44.309 3.403 44.509 1.094 44.719 C-1.054 44.892 -1.054 44.892 -3 46 C-6.597 46.564 -10.203 47.027 -13.812 47.5 C-16.887 47.817 -16.887 47.817 -19 49 C-20.92 49.348 -22.847 49.653 -24.777 49.938 C-25.93 50.11 -27.083 50.283 -28.271 50.461 C-29.481 50.639 -30.691 50.817 -31.938 51 C-34.322 51.352 -36.706 51.706 -39.09 52.062 C-40.151 52.218 -41.211 52.374 -42.304 52.535 C-45.087 52.945 -45.087 52.945 -48 54 C-51.954 54.259 -55.913 54.231 -59.875 54.25 C-61.509 54.281 -61.509 54.281 -63.176 54.312 C-64.229 54.318 -65.282 54.323 -66.367 54.328 C-67.327 54.337 -68.288 54.347 -69.277 54.356 C-73.327 53.826 -75.959 52.041 -78.812 49.188 C-80.492 46.094 -80.615 44.486 -80 41 C-69.199 23.653 -39.215 14.912 -21 8 C-19.207 7.296 -17.415 6.588 -15.625 5.875 C-14.469 5.415 -14.469 5.415 -13.289 4.945 C-10.092 3.625 -6.95 2.191 -3.812 0.734 C-2 0 -2 0 0 0 Z " fill="#050505" transform="translate(627,841)"/>
<path d="M0 0 C0.33 0 0.66 0 1 0 C1.049 0.987 1.098 1.975 1.148 2.992 C1.223 4.274 1.298 5.555 1.375 6.875 C1.479 8.789 1.479 8.789 1.586 10.742 C1.672 14.081 1.672 14.081 4 16 C6.133 16.476 8.283 16.882 10.438 17.25 C20.072 19.218 28.382 22.664 34 31 C35.867 34.139 36.136 36.313 36.125 39.938 C36.36 43.122 36.469 44.492 38.805 46.727 C40.827 47.957 42.853 49.005 45 50 C46 51 46 51 46.098 54.379 C46.091 55.773 46.079 57.168 46.062 58.562 C46.058 59.273 46.053 59.984 46.049 60.717 C46.037 62.478 46.019 64.239 46 66 C47.093 66.082 48.186 66.165 49.312 66.25 C53 67 53 67 54.887 68.461 C56.623 72.422 56.656 76.342 56.812 80.625 C56.863 81.496 56.914 82.368 56.967 83.266 C57.186 88.062 57.186 88.062 57 90 C56.34 90.66 55.68 91.32 55 92 C52.871 91.831 50.742 91.641 48.629 91.332 C45.991 90.951 45.991 90.951 43.277 90.949 C35.653 90.745 31.354 88.388 26 83 C23.506 79.976 23.058 78.457 22.562 74.562 C23.073 70.404 24.448 68.269 27 65 C26.169 64.294 26.169 64.294 25.32 63.574 C24.234 62.64 24.234 62.64 23.125 61.688 C22.406 61.073 21.686 60.458 20.945 59.824 C19 58 19 58 17 55 C17.211 49.402 18.727 46.329 22 42 C21.216 41.711 20.433 41.423 19.625 41.125 C17 40 17 40 15 38 C14.812 34.438 14.812 34.438 15 31 C16 30 16 30 18.688 29.625 C23.217 30.138 24.949 31.665 28 35 C28.875 38.812 28.875 38.812 29 42 C29.66 42 30.32 42 31 42 C30.382 37.252 29.768 33.178 27.125 29.125 C20.342 24.513 11.917 22.827 4 21 C2.922 28.583 2.483 33.914 6.047 40.754 C7.897 45.113 8.019 49.407 7 54 C5.068 57.13 2.66 59.483 0 62 C-0.934 63.068 -1.853 64.15 -2.75 65.25 C-3.864 66.611 -3.864 66.611 -5 68 C-5.413 68.708 -5.825 69.415 -6.25 70.145 C-8 72 -8 72 -10.891 72.434 C-11.999 72.435 -13.108 72.436 -14.25 72.438 C-20.622 72.7 -23.143 74.073 -28 78 C-30.184 77.648 -30.184 77.648 -32 77 C-29.918 72.165 -26.831 69.96 -22 68 C-19.963 67.824 -17.919 67.723 -15.875 67.688 C-11.618 67.559 -11.618 67.559 -8.109 65.418 C-6.59 63.391 -6.59 63.391 -5.312 61.18 C-3.964 58.94 -2.463 57.347 -0.625 55.5 C1.921 52.532 2.774 50.209 2.477 46.172 C1.722 42.733 0.298 39.62 -1.105 36.402 C-2.363 33.026 -2.371 30.565 -2 27 C-1.67 26.34 -1.34 25.68 -1 25 C-0.659 19.67 -0.659 19.67 -3 15 C-3.125 11.812 -3.125 11.812 -3 9 C-2.34 8.67 -1.68 8.34 -1 8 C-0.535 6.105 -0.535 6.105 -0.375 3.938 C-0.251 2.638 -0.128 1.339 0 0 Z " fill="#171718" transform="translate(535,395)"/>
<path d="M0 0 C3.493 3.244 6.028 7.141 8.77 11.016 C10.44 13.251 12.085 15.169 13.973 17.195 C17.703 21.491 19.567 26.376 21.625 31.625 C24.772 39.548 27.295 45.599 34.75 50.312 C35.549 50.824 36.348 51.336 37.172 51.863 C37.775 52.238 38.378 52.614 39 53 C37.568 56.659 36.011 60.24 34.375 63.812 C33.929 64.788 33.483 65.764 33.023 66.77 C32.686 67.506 32.348 68.242 32 69 C31.163 68.553 30.327 68.105 29.465 67.645 C22.467 64.01 15.899 61.25 8.31 59.067 C3.781 57.623 1.552 55.757 -1.5 52.188 C-5.068 48.484 -7.737 47.705 -12.727 47.422 C-18.497 47.342 -24.245 47.579 -30 48 C-30 47.34 -30 46.68 -30 46 C-29.46 45.859 -28.92 45.718 -28.364 45.573 C-25.928 44.932 -23.495 44.279 -21.062 43.625 C-20.212 43.403 -19.362 43.182 -18.486 42.953 C-17.677 42.734 -16.869 42.515 -16.035 42.289 C-14.912 41.991 -14.912 41.991 -13.766 41.686 C-11.794 41.147 -11.794 41.147 -11 39 C-15.892 37.795 -20.803 37.665 -25.812 37.438 C-26.696 37.394 -27.58 37.351 -28.49 37.307 C-30.66 37.201 -32.83 37.1 -35 37 C-29.585 32.588 -25.08 31.704 -18.188 31.875 C-17.148 31.889 -17.148 31.889 -16.088 31.902 C-14.392 31.926 -12.696 31.962 -11 32 C-11 31.34 -11 30.68 -11 30 C-20.288 27.934 -29.527 27.422 -39 27 C-36.559 24.327 -34.729 23.112 -30.995 22.871 C-29.872 22.869 -29.872 22.869 -28.727 22.867 C-27.902 22.866 -27.077 22.865 -26.227 22.863 C-25.368 22.867 -24.51 22.871 -23.625 22.875 C-22.774 22.871 -21.923 22.867 -21.047 22.863 C-16.904 22.87 -13.039 22.953 -9 24 C-11.695 20.653 -15.302 19.399 -19.188 17.875 C-19.822 17.611 -20.457 17.346 -21.111 17.074 C-25.751 15.226 -30.027 14.454 -35 14 C-35 13.34 -35 12.68 -35 12 C-24.097 11.208 -15.78 12.584 -5.645 16.688 C-2.408 17.853 -0.375 18.315 3 18 C2.491 13.899 2.491 13.899 0.938 10.125 C-0.539 6.778 -0.121 3.632 0 0 Z " fill="#FEFEFE" transform="translate(659,299)"/>
<path d="M0 0 C6.962 3.239 12.434 8.312 17.562 13.938 C20.454 16.981 20.454 16.981 24.203 18.605 C26.86 18.63 29.327 18.179 31.891 17.496 C39.697 15.66 45.708 16.325 52.562 20.562 C54.716 22.03 56.862 23.509 59 25 C60.956 26.171 62.914 27.338 64.875 28.5 C70.273 31.933 75.099 36.199 78 42 C78.551 47.026 78.459 50.975 76.375 55.625 C74 58 74 58 70.938 58.5 C68 58 68 58 65 56 C63.68 56 62.36 56 61 56 C61.608 59.228 62.681 61.227 64.688 63.812 C65.22 64.512 65.752 65.212 66.301 65.934 C67.942 68 67.942 68 69.73 69.723 C73.238 73.247 74.375 75.371 74.375 80.438 C74.259 81.959 74.135 83.48 74 85 C69.029 80.87 64.505 76.561 60.125 71.812 C59.514 71.154 58.902 70.495 58.272 69.817 C54.08 65.266 50.128 60.569 46.266 55.734 C43.659 52.589 40.915 49.607 38.125 46.625 C29.631 37.525 21.716 28.016 14.079 18.189 C10.111 13.095 5.981 8.152 1.801 3.23 C0 1 0 1 0 0 Z " fill="#FEFEFE" transform="translate(395,357)"/>
<path d="M0 0 C1.32 0 2.64 0 4 0 C6.034 13.46 7.716 26.931 9.176 40.465 C9.77 45.961 10.398 51.452 11.043 56.941 C11.224 58.491 11.405 60.04 11.586 61.589 C11.851 63.853 12.116 66.116 12.387 68.378 C13.295 75.991 14.086 83.574 14.512 91.23 C14.903 98.253 15.712 105.161 16.688 112.125 C18.681 126.955 20.362 141.815 22 156.688 C22.13 157.871 22.261 159.054 22.395 160.274 C23.037 166.107 23.678 171.942 24.317 177.776 C25.032 184.303 25.759 190.829 26.489 197.355 C27.036 202.249 27.577 207.144 28.118 212.039 C28.676 217.088 29.238 222.137 29.802 227.185 C31.914 246.118 33.992 265.055 36 284 C36.106 284.995 36.211 285.99 36.32 287.014 C38.684 309.4 39.403 331.504 39 354 C37.68 354.66 36.36 355.32 35 356 C34.971 355.271 34.942 354.542 34.912 353.79 C32.884 306.246 28.587 258.446 22.518 211.249 C21.523 203.486 20.651 195.724 19.891 187.935 C18.52 173.978 16.99 160.038 15.486 146.095 C15.024 141.809 14.566 137.523 14.108 133.237 C13.752 129.912 13.393 126.587 13.034 123.262 C12.864 121.68 12.695 120.098 12.526 118.516 C12.292 116.32 12.055 114.125 11.816 111.93 C11.682 110.684 11.548 109.439 11.411 108.156 C11.088 105.673 10.641 103.408 10 101 C9.73 98.598 9.495 96.193 9.281 93.785 C9.218 93.092 9.156 92.4 9.091 91.686 C8.891 89.478 8.695 87.27 8.5 85.062 C8.305 82.858 8.109 80.654 7.909 78.45 C7.728 76.447 7.55 74.444 7.373 72.442 C7.068 69.145 7.068 69.145 6.5 66.511 C5.838 63.185 5.566 59.844 5.281 56.469 C5.218 55.755 5.156 55.042 5.091 54.307 C4.824 51.272 4.563 48.237 4.302 45.202 C4.11 42.978 3.914 40.755 3.719 38.531 C3.661 37.851 3.604 37.171 3.545 36.47 C3.232 32.916 2.735 29.488 2 26 C1.705 22.428 1.495 18.855 1.281 15.277 C1.058 12.678 0.645 10.5 0 8 C-0.122 5.325 -0.045 2.68 0 0 Z " fill="#E7E7E8" transform="translate(729,502)"/>
<path d="M0 0 C1.503 0.848 3.005 1.7 4.489 2.582 C7.686 4.456 10.945 6.215 14.195 7.995 C16.003 8.987 17.808 9.986 19.61 10.991 C20.441 11.454 21.272 11.917 22.129 12.395 C22.875 12.812 23.621 13.229 24.389 13.659 C26.489 14.812 26.489 14.812 29.375 15.688 C27.852 19.929 25.699 23.638 23.312 27.438 C22.766 28.321 22.766 28.321 22.209 29.223 C19.527 33.535 19.527 33.535 18.375 34.688 C14.074 35.046 10.991 34.677 6.938 33.188 C1.707 31.298 -2.843 30.976 -8.312 32.375 C-10.625 32.688 -10.625 32.688 -13.184 31.555 C-16.265 29.198 -16.4 27.897 -17 24.125 C-18.596 16.576 -22.105 10.034 -28.625 5.688 C-27.471 2.096 -25.315 0.186 -21.996 -1.539 C-14.679 -3.926 -6.873 -3.363 0 0 Z " fill="#FEFEFE" transform="translate(472.625,350.3125)"/>
<path d="M0 0 C8.602 3.027 16.901 7.493 21 16 C21.631 19.755 21.779 23.263 21 27 C19.481 29.123 18.614 29.863 16.062 30.434 C10.598 30.444 10.598 30.444 8.062 28.562 C6.729 25.347 6.495 22.385 6.309 18.926 C6.207 18.29 6.105 17.655 6 17 C3.716 15.858 2.223 15.869 -0.312 15.75 C-3.899 15.374 -4.996 15.003 -8.062 12.812 C-10 10 -10 10 -10.562 6.938 C-9.389 0.811 -5.931 -0.895 0 0 Z " fill="#171718" transform="translate(588,418)"/>
<path d="M0 0 C0.897 0.311 0.897 0.311 1.812 0.629 C0.926 1.578 0.039 2.526 -0.875 3.504 C-13.343 18.119 -14.553 38.093 -14.393 56.455 C-14.375 58.655 -14.373 60.854 -14.373 63.055 C-14.352 69.02 -14.261 74.743 -13.188 80.629 C-13.124 82.42 -13.101 84.212 -13.125 86.004 C-13.134 86.878 -13.143 87.752 -13.152 88.652 C-13.164 89.305 -13.176 89.957 -13.188 90.629 C-14.837 90.299 -16.487 89.969 -18.188 89.629 C-19.229 83.617 -19.365 77.742 -19.391 71.648 C-19.396 70.599 -19.402 69.55 -19.408 68.469 C-19.417 66.254 -19.424 64.04 -19.428 61.825 C-19.437 58.47 -19.468 55.115 -19.5 51.76 C-19.507 49.598 -19.512 47.436 -19.516 45.273 C-19.528 44.286 -19.54 43.298 -19.553 42.28 C-19.512 29.309 -15.998 12.756 -6.742 3.125 C-2.832 -0.48 -2.832 -0.48 0 0 Z " fill="#171718" transform="translate(754.1875,263.37109375)"/>
<path d="M0 0 C0.33 0 0.66 0 1 0 C1.33 9.9 1.66 19.8 2 30 C-7.063 34.028 -15.033 36.303 -24.742 33.094 C-26.938 32 -26.938 32 -30 30 C-30 27.03 -30 24.06 -30 21 C-29.526 21.495 -29.051 21.99 -28.562 22.5 C-24.681 24.772 -21.384 24.836 -17 24 C-9.477 20.845 -5.295 15.283 -2 8 C-1.103 5.313 -0.518 2.795 0 0 Z " fill="#F3F4F4" transform="translate(712,193)"/>
<path d="M0 0 C4.18 1.579 7.601 1.875 12.016 1.961 C19.447 2.142 19.447 2.142 21.703 4.398 C21.958 6.642 21.958 6.642 21.977 9.414 C21.997 10.418 22.018 11.422 22.039 12.457 C22.065 14.569 22.083 16.681 22.094 18.793 C22.235 24.946 22.524 28.748 26.703 33.398 C29.988 35.588 31.534 35.751 35.391 36.023 C36.384 36.098 37.378 36.173 38.402 36.25 C39.162 36.299 39.921 36.348 40.703 36.398 C40.703 36.728 40.703 37.058 40.703 37.398 C38.063 37.398 35.423 37.398 32.703 37.398 C32.703 38.058 32.703 38.718 32.703 39.398 C34.353 39.398 36.003 39.398 37.703 39.398 C37.703 39.728 37.703 40.058 37.703 40.398 C31.866 40.92 28.545 40.233 23.562 37.176 C19.042 32.855 17.474 29.042 17.312 22.902 C17.339 20.921 17.386 18.941 17.453 16.961 C17.471 15.943 17.489 14.926 17.508 13.877 C17.555 11.383 17.62 8.891 17.703 6.398 C16.89 6.468 16.076 6.538 15.238 6.609 C7.765 6.962 2.44 6.246 -4.422 3.461 C-13.911 -0.365 -23.164 -0.581 -33.297 -0.602 C-33.297 -1.922 -33.297 -3.242 -33.297 -4.602 C-21.145 -7.401 -10.992 -5.34 0 0 Z " fill="#171718" transform="translate(543.296875,315.6015625)"/>
<path d="M0 0 C2.312 0.875 2.312 0.875 4.312 1.875 C7.426 2.15 10.539 2.322 13.66 2.496 C14.535 2.621 15.411 2.746 16.312 2.875 C17.898 6.047 17.691 9.51 17.875 13 C17.918 13.754 17.961 14.508 18.006 15.285 C18.112 17.148 18.213 19.012 18.312 20.875 C17.781 20.713 17.25 20.55 16.703 20.383 C13.793 19.765 11.036 19.799 8.062 19.75 C2.17 19.325 -1.165 18.104 -5.277 13.844 C-7.498 10.744 -8.038 8.662 -7.688 4.875 C-4.099 -0.191 -4.099 -0.191 0 0 Z " fill="#FEFEFE" transform="translate(569.6875,462.125)"/>
<path d="M0 0 C10.395 1.925 10.395 1.925 14 5 C16.447 9.472 17.372 12.919 17 18 C17.736 17.954 18.472 17.907 19.23 17.859 C27.3 17.561 27.3 17.561 31.188 20 C32.085 20.99 32.085 20.99 33 22 C32.688 24.875 32.688 24.875 32 28 C29 30 29 30 25.688 29.875 C20.048 28.537 16.071 25.929 13 21 C12.629 18.562 12.629 18.562 12.562 16 C12.268 12.014 12.268 12.014 10.312 8.562 C7.941 6.878 7.941 6.878 4.875 5.5 C1.734 3.861 1.339 3.112 0 0 Z " fill="#171718" transform="translate(573,434)"/>
<path d="M0 0 C3.369 3.128 3.947 4.192 4.25 8.812 C4.168 9.864 4.085 10.916 4 12 C3.34 12 2.68 12 2 12 C1.505 10.948 1.01 9.896 0.5 8.812 C-2.529 3.506 -7.189 1.169 -12.688 -1.117 C-16.9 -2.24 -20.784 -2.34 -25.125 -2.312 C-25.962 -2.311 -26.8 -2.31 -27.662 -2.309 C-33.596 -2.217 -38.962 -1.425 -44.652 0.344 C-47 1 -47 1 -51 1 C-50 -2 -50 -2 -47.891 -3.352 C-47.019 -3.772 -46.148 -4.192 -45.25 -4.625 C-43.958 -5.263 -43.958 -5.263 -42.641 -5.914 C-28.844 -11.588 -11.765 -8.491 0 0 Z " fill="#171718" transform="translate(725,90)"/>
<path d="M0 0 C6.98 0.31 12.073 3.495 18 7 C18.027 8.625 18.046 10.25 18.062 11.875 C18.074 12.78 18.086 13.685 18.098 14.617 C18 17 18 17 17 19 C9.946 18.443 3.455 15.284 -1.688 10.5 C-3 8 -3 8 -2.875 5.375 C-2 3 -2 3 0 0 Z " fill="#F3F4F4" transform="translate(559,441)"/>
<path d="M0 0 C-0.619 0.041 -1.237 0.082 -1.875 0.125 C-2.576 0.414 -3.278 0.702 -4 1 C-4.693 2.991 -5.357 4.992 -6 7 C-9.252 10.268 -12.053 10.487 -16.562 10.562 C-23.97 10.446 -28.966 8.137 -35 4 C-35 3.34 -35 2.68 -35 2 C-31.52 -0.115 -28.623 -0.315 -24.59 -0.449 C-23.353 -0.492 -22.116 -0.536 -20.842 -0.58 C-18.909 -0.633 -18.909 -0.633 -16.938 -0.688 C-15.645 -0.735 -14.353 -0.782 -13.021 -0.83 C-3.408 -1.136 -3.408 -1.136 0 0 Z " fill="#E7E7E8" transform="translate(660,842)"/>
<path d="M0 0 C0.545 0.277 1.091 0.554 1.652 0.84 C4.267 2.132 6.908 3.353 9.562 4.562 C10.513 4.997 11.463 5.431 12.441 5.879 C22.87 10.449 37.523 8.887 48 5 C50.741 3.752 53.399 2.436 56.039 0.988 C58 0 58 0 60 0 C59.449 3.657 59.449 3.657 57.465 5.173 C56.496 5.634 56.496 5.634 55.508 6.105 C54.45 6.621 54.45 6.621 53.371 7.146 C52.259 7.662 52.259 7.662 51.125 8.188 C50.025 8.72 50.025 8.72 48.902 9.264 C38.625 14.197 25.146 15.352 14.055 12.023 C9.079 9.991 5.05 7.556 1 4 C0.188 1.75 0.188 1.75 0 0 Z " fill="#171718" transform="translate(667,236)"/>
<path d="M0 0 C3.845 0.552 5.509 2.215 8.125 5 C12.803 9.943 15.687 10.153 22.375 10.375 C23.143 10.393 23.912 10.411 24.703 10.43 C28.016 10.567 30.473 10.749 33.492 12.184 C35.557 14.671 35.599 16.488 35.75 19.688 C35.807 20.681 35.863 21.675 35.922 22.699 C35.948 23.458 35.973 24.218 36 25 C37.65 25.33 39.3 25.66 41 26 C40.67 27.32 40.34 28.64 40 30 C36.472 29.765 34.592 29.631 32.125 27 C31.024 24.063 30.88 22.387 30.93 19.312 C30.94 18.504 30.95 17.696 30.96 16.863 C30.974 16.248 30.987 15.634 31 15 C29.805 15.081 28.61 15.162 27.379 15.246 C12.916 15.934 12.916 15.934 7.625 11.812 C5.637 9.879 5.637 9.879 4 8 C3.154 7.092 2.309 6.185 1.438 5.25 C0 3 0 3 0 0 Z " fill="#171718" transform="translate(504,323)"/>
<path d="M0 0 C2.062 0.438 2.062 0.438 4 1 C5.297 12.156 -1.522 23.386 -8 32 C-10.217 34.476 -12.518 36.79 -15 39 C-15.99 38.67 -16.98 38.34 -18 38 C-17.424 33.94 -15.276 31.578 -12.75 28.438 C-6.641 20.561 -2.916 12.765 -1.359 2.898 C-1 1 -1 1 0 0 Z " fill="#171718" transform="translate(635,263)"/>
<path d="M0 0 C0.994 0.009 1.988 0.018 3.012 0.027 C4.151 0.045 4.151 0.045 5.312 0.062 C5.312 1.053 5.312 2.043 5.312 3.062 C4.322 3.062 3.332 3.062 2.312 3.062 C2.86 5.6 2.86 5.6 4.312 8.062 C7.365 8.961 7.365 8.961 10.312 9.062 C9.982 10.053 9.653 11.043 9.312 12.062 C8.322 12.393 7.332 12.722 6.312 13.062 C6.312 14.383 6.312 15.702 6.312 17.062 C8.622 17.062 10.933 17.062 13.312 17.062 C13.312 17.722 13.312 18.383 13.312 19.062 C11.663 19.393 10.013 19.722 8.312 20.062 C8.643 22.043 8.972 24.023 9.312 26.062 C8.322 26.062 7.332 26.062 6.312 26.062 C5.982 24.413 5.653 22.763 5.312 21.062 C2.342 21.393 -0.628 21.722 -3.688 22.062 C-3.688 21.072 -3.688 20.082 -3.688 19.062 C-0.222 18.567 -0.222 18.567 3.312 18.062 C3.312 16.742 3.312 15.423 3.312 14.062 C0.673 14.062 -1.967 14.062 -4.688 14.062 C-4.688 13.072 -4.688 12.082 -4.688 11.062 C-2.707 11.062 -0.727 11.062 1.312 11.062 C0.653 9.082 -0.008 7.102 -0.688 5.062 C-2.997 5.062 -5.308 5.062 -7.688 5.062 C-8.018 3.742 -8.347 2.423 -8.688 1.062 C-5.538 0.013 -3.299 -0.039 0 0 Z " fill="#E7E7E8" transform="translate(754.6875,879.9375)"/>
<path d="M0 0 C2.576 2.02 4.324 3.996 6.145 6.727 C6.145 7.717 6.145 8.707 6.145 9.727 C6.805 9.727 7.465 9.727 8.145 9.727 C8.145 8.077 8.145 6.427 8.145 4.727 C10.145 8.602 10.145 8.602 10.145 9.727 C11.483 9.856 11.483 9.856 12.848 9.988 C14.018 10.129 15.189 10.269 16.395 10.414 C18.135 10.605 18.135 10.605 19.91 10.801 C23.814 11.918 24.963 13.384 27.145 16.727 C26.491 16.399 25.837 16.072 25.164 15.734 C21.35 14.461 17.8 14.509 13.832 14.602 C13.091 14.611 12.351 14.62 11.588 14.629 C9.773 14.652 7.959 14.688 6.145 14.727 C5.925 14.051 5.706 13.376 5.48 12.68 C3.418 6.877 1.947 3.512 -3.855 0.727 C-8.038 -0.886 -11.367 -1.495 -15.84 -1.363 C-17.489 -1.333 -17.489 -1.333 -19.172 -1.303 C-21.477 -1.241 -23.781 -1.176 -26.086 -1.107 C-27.18 -1.089 -28.275 -1.07 -29.402 -1.051 C-30.401 -1.022 -31.4 -0.994 -32.429 -0.965 C-33.63 -1.117 -33.63 -1.117 -34.855 -1.273 C-35.515 -2.263 -36.175 -3.253 -36.855 -4.273 C-24.624 -6.7 -10.594 -7.271 0 0 Z " fill="#E7E7E8" transform="translate(720.85546875,92.2734375)"/>
<path d="M0 0 C3 2 3 2 3.552 3.812 C3.637 4.534 3.722 5.256 3.809 6 C3.913 6.8 4.018 7.6 4.125 8.425 C4.228 9.274 4.331 10.124 4.438 11 C6.066 22.375 7.769 29.868 16.879 37.504 C22.703 41.612 31.003 40.4 37.75 39.5 C38.864 39.253 38.864 39.253 40 39 C37.175 42.094 35.136 42.913 30.891 43.238 C22.233 43.415 17.578 43.252 11.137 37.27 C6.632 32.597 4.483 28.258 3 22 C2.723 20.877 2.446 19.754 2.16 18.598 C0.698 12.285 -0.389 6.479 0 0 Z " fill="#DCDCDC" transform="translate(732,891)"/>
<path d="M0 0 C6.639 0.349 12.583 1.773 17.543 6.457 C20.579 9.974 22.862 13.022 23.188 17.688 C23 20 23 20 22 21 C19.5 21.125 19.5 21.125 17 21 C15.117 19.117 15.635 15.786 15.477 13.227 C14.908 10.571 14.092 9.679 12 8 C9.566 6.783 7.582 6.68 4.875 6.438 C3.965 6.354 3.055 6.27 2.117 6.184 C1.419 6.123 0.72 6.062 0 6 C-0.382 4.344 -0.714 2.675 -1 1 C-0.67 0.67 -0.34 0.34 0 0 Z " fill="#E7E7E8" transform="translate(583,423)"/>
<path d="M0 0 C5.856 -0.581 10.588 -0.896 15.5 2.688 C19.684 6.365 21.766 9.029 22.438 14.688 C22.269 19.859 20.13 24.359 18 29 C17.67 28.34 17.34 27.68 17 27 C16.01 26.67 15.02 26.34 14 26 C15.875 21.25 15.875 21.25 17 19 C17.49 14.756 17.26 12.492 15.25 8.688 C11.387 4.465 5.388 4.498 0 4 C0 2.68 0 1.36 0 0 Z " fill="#171718" transform="translate(405,232)"/>
<path d="M0 0 C-3.66 3.05 -9.079 7 -14 7 C-14 8.32 -14 9.64 -14 11 C-11.03 10.01 -8.06 9.02 -5 8 C0 14.75 0 14.75 0 17 C-6.597 17.717 -11.472 15.588 -17 12 C-19 9 -19 9 -18.625 6.312 C-18.419 5.549 -18.212 4.786 -18 4 C-16.129 3.322 -14.253 2.658 -12.375 2 C-11.331 1.629 -10.287 1.257 -9.211 0.875 C-5.982 -0.005 -3.328 -0.16 0 0 Z " fill="#E7E7E8" transform="translate(358,304)"/>
<path d="M0 0 C0.99 0.33 1.98 0.66 3 1 C2.482 6.557 0.995 10.723 -1.5 15.688 C-4.288 21.145 -4.288 21.145 -6 27 C-4.35 27 -2.7 27 -1 27 C-1 28.32 -1 29.64 -1 31 C-7.388 31.482 -7.388 31.482 -10.062 29.375 C-12.185 23.998 -7.025 15.897 -4.938 10.688 C-4.573 9.769 -4.209 8.851 -3.834 7.904 C-3.485 7.032 -3.137 6.16 -2.777 5.262 C-2.46 4.467 -2.143 3.673 -1.816 2.854 C-1 1 -1 1 0 0 Z " fill="#171718" transform="translate(684,141)"/>
<path d="M0 0 C1.32 0 2.64 0 4 0 C8.569 21.401 8.569 21.401 9 32 C8.34 32 7.68 32 7 32 C6.67 32.66 6.34 33.32 6 34 C4.566 31.131 4.569 28.262 4.281 25.094 C4.108 22.946 4.108 22.946 3 21 C2.82 19.671 2.679 18.336 2.562 17 C2.122 12.616 1.325 8.372 0.402 4.066 C0 2 0 2 0 0 Z " fill="#DCDCDC" transform="translate(651,512)"/>
<path d="M0 0 C4.62 0 9.24 0 14 0 C14 5.94 14 11.88 14 18 C11.46 14.825 8.933 11.647 6.438 8.438 C5.569 7.322 5.569 7.322 4.684 6.184 C3.105 4.136 1.551 2.069 0 0 Z " fill="#F3F4F4" transform="translate(789,363)"/>
<path d="M0 0 C6.573 -0.468 10.778 -0.493 16 4 C17.686 5.647 19.356 7.311 21 9 C21.99 9.66 22.98 10.32 24 11 C24 11.66 24 12.32 24 13 C22.35 13.33 20.7 13.66 19 14 C18.518 13.434 18.036 12.868 17.539 12.285 C16.907 11.552 16.276 10.818 15.625 10.062 C14.999 9.332 14.372 8.601 13.727 7.848 C10.842 4.761 8.471 4.771 4.375 4.438 C2.871 4.312 2.871 4.312 1.336 4.184 C0.565 4.123 -0.206 4.062 -1 4 C-0.67 2.68 -0.34 1.36 0 0 Z " fill="#171718" transform="translate(428,218)"/>
<path d="M0 0 C3.815 0.553 5.422 2.153 8 4.938 C12.386 9.658 15.612 11.129 22 12 C21.67 12.99 21.34 13.98 21 15 C15.458 15.705 12.737 15.25 8.25 11.812 C5.117 9.134 2.233 6.496 0 3 C0 2.01 0 1.02 0 0 Z " fill="#171718" transform="translate(504,323)"/>
<path d="M0 0 C0 0.66 0 1.32 0 2 C-2.561 2.984 -5.123 3.962 -7.688 4.938 C-8.769 5.354 -8.769 5.354 -9.873 5.779 C-13.563 7.178 -17.081 8.389 -21 9 C-21 7.35 -21 5.7 -21 4 C-13.949 0.012 -8.014 -0.488 0 0 Z " fill="#E7E7E8" transform="translate(354,291)"/>
<path d="M0 0 C5.957 0.009 9.209 2.469 13.438 6.438 C13.107 7.428 12.778 8.417 12.438 9.438 C10.304 8.98 8.544 8.496 6.625 7.438 C4.079 6.274 1.97 6.032 -0.812 5.812 C-1.705 5.738 -2.597 5.663 -3.516 5.586 C-4.529 5.512 -4.529 5.512 -5.562 5.438 C-5.562 0.023 -4.972 0.25 0 0 Z " fill="#171718" transform="translate(699.5625,134.5625)"/>
<path d="M0 0 C1.32 0.66 2.64 1.32 4 2 C2 3.333 0 4.667 -2 6 C-1.484 6.598 -0.969 7.196 -0.438 7.812 C0.037 8.534 0.511 9.256 1 10 C0.67 10.99 0.34 11.98 0 13 C-0.804 12.134 -1.609 11.268 -2.438 10.375 C-4.612 8.513 -5.502 7.977 -8.402 8.113 C-10.653 8.636 -12.819 9.239 -15 10 C-14.67 9.01 -14.34 8.02 -14 7 C-11.438 5.812 -11.438 5.812 -9 5 C-9.33 3.68 -9.66 2.36 -10 1 C-8.907 1.206 -7.814 1.413 -6.688 1.625 C-2.916 2.403 -2.916 2.403 0 0 Z " fill="#E7E7E8" transform="translate(618,850)"/>
<path d="M0 0 C0.99 0 1.98 0 3 0 C2.702 3.578 2.258 4.762 -0.438 7.25 C-4.258 9.859 -6.335 10.457 -11 10 C-14.276 8.034 -15.721 6.946 -16.812 3.25 C-16.874 2.507 -16.936 1.765 -17 1 C-16.01 1 -15.02 1 -14 1 C-13.567 1.66 -13.134 2.32 -12.688 3 C-11.113 5.289 -11.113 5.289 -8.125 5.562 C-4.067 4.832 -2.747 2.97 0 0 Z " fill="#171718" transform="translate(686,176)"/>
<path d="M0 0 C1.65 0.33 3.3 0.66 5 1 C6.312 3.062 6.312 3.062 7 5 C5.213 8.193 3.387 11.218 1 14 C-2.25 14.688 -2.25 14.688 -5 14 C-5.66 13.34 -6.32 12.68 -7 12 C-6.67 11.01 -6.34 10.02 -6 9 C-4.68 9.66 -3.36 10.32 -2 11 C-1.34 7.37 -0.68 3.74 0 0 Z " fill="#171718" transform="translate(699,146)"/>
<path d="M0 0 C9.794 1.814 9.794 1.814 14 5 C16.209 8.314 16.225 9.345 16.125 13.188 C16.107 14.089 16.089 14.99 16.07 15.918 C16.047 16.605 16.024 17.292 16 18 C15.34 18 14.68 18 14 18 C13.832 17.112 13.832 17.112 13.66 16.207 C12.397 11.12 12.397 11.12 8.867 7.43 C7.29 6.623 5.687 5.866 4.059 5.168 C1.609 3.778 1.002 2.584 0 0 Z " fill="#171718" transform="translate(573,434)"/>
<path d="M0 0 C2.375 0.312 2.375 0.312 5 1 C5.66 1.99 6.32 2.98 7 4 C4.73 10.27 4.73 10.27 3 12 C-3.338 12.47 -3.338 12.47 -5.938 10.625 C-7 9 -7 9 -7 7 C-5.02 7.66 -3.04 8.32 -1 9 C-0.67 6.03 -0.34 3.06 0 0 Z " fill="#171718" transform="translate(672,142)"/>
<path d="M0 0 C2.97 0 5.94 0 9 0 C9.081 2.229 9.139 4.458 9.188 6.688 C9.222 7.929 9.257 9.17 9.293 10.449 C8.985 14.186 8.181 16.006 6 19 C5.01 18.67 4.02 18.34 3 18 C3.66 12.72 4.32 7.44 5 2 C3.35 2 1.7 2 0 2 C0 1.34 0 0.68 0 0 Z " fill="#171718" transform="translate(576,353)"/>
<path d="M0 0 C3.23 0.11 6.459 0.241 9.688 0.375 C10.6 0.406 11.512 0.437 12.451 0.469 C17.012 0.668 20.862 0.857 25 3 C24.67 3.99 24.34 4.98 24 6 C21.934 6.73 21.934 6.73 19.438 7.188 C18.611 7.346 17.785 7.505 16.934 7.668 C16.296 7.778 15.657 7.887 15 8 C15 7.34 15 6.68 15 6 C11.37 6 7.74 6 4 6 C6.901 4.066 7.897 3.699 11.188 3.375 C12.446 3.251 13.704 3.127 15 3 C10.05 2.67 5.1 2.34 0 2 C0 1.34 0 0.68 0 0 Z " fill="#2E2E2E" transform="translate(623,335)"/>
<path d="M0 0 C0.33 1.32 0.66 2.64 1 4 C1.516 3.67 2.031 3.34 2.562 3 C5.882 1.638 8.442 1.682 12 2 C14.438 3.25 14.438 3.25 16 5 C16 6.32 16 7.64 16 9 C13.52 8.693 11.041 8.379 8.562 8.062 C7.855 7.975 7.148 7.888 6.42 7.799 C1.113 7.113 1.113 7.113 0 6 C-0.041 4 -0.043 2 0 0 Z " fill="#171718" transform="translate(668,127)"/>
<path d="M0 0 C1.887 0.031 1.887 0.031 3.812 0.062 C3.812 1.053 3.812 2.043 3.812 3.062 C1.9 3.905 -0.018 4.736 -1.938 5.562 C-3.539 6.259 -3.539 6.259 -5.172 6.969 C-8.188 8.062 -8.188 8.062 -12.188 8.062 C-11.809 5.316 -11.409 4.262 -9.312 2.375 C-6.146 0.419 -3.643 -0.06 0 0 Z " fill="#E7E7E8" transform="translate(337.1875,275.9375)"/>
<path d="M0 0 C2 3.875 2 3.875 2 5 C2.892 5.086 3.784 5.173 4.703 5.262 C5.874 5.402 7.044 5.543 8.25 5.688 C9.41 5.815 10.57 5.943 11.766 6.074 C15.669 7.191 16.818 8.657 19 12 C18.346 11.673 17.693 11.345 17.02 11.008 C13.205 9.735 9.655 9.783 5.688 9.875 C4.577 9.889 4.577 9.889 3.443 9.902 C1.629 9.926 -0.186 9.962 -2 10 C-2.33 8.02 -2.66 6.04 -3 4 C-2.01 4.33 -1.02 4.66 0 5 C0 3.35 0 1.7 0 0 Z " fill="#D2D3D4" transform="translate(729,97)"/>
<path d="M0 0 C0 0.66 0 1.32 0 2 C-2.537 3.013 -5.079 4.01 -7.625 5 C-8.338 5.286 -9.051 5.572 -9.785 5.867 C-14.02 7.499 -17.383 8.35 -22 8 C-21.67 7.01 -21.34 6.02 -21 5 C-18.213 3.949 -15.55 3.091 -12.688 2.312 C-11.528 1.975 -11.528 1.975 -10.346 1.631 C-6.666 0.59 -3.885 0 0 0 Z " fill="#DCDCDC" transform="translate(359,297)"/>
<path d="M0 0 C0.994 0.009 1.988 0.018 3.012 0.027 C4.151 0.045 4.151 0.045 5.312 0.062 C5.312 1.053 5.312 2.043 5.312 3.062 C4.322 3.062 3.332 3.062 2.312 3.062 C2.643 4.712 2.972 6.362 3.312 8.062 C2.322 8.062 1.332 8.062 0.312 8.062 C-0.018 7.072 -0.347 6.082 -0.688 5.062 C-2.997 5.062 -5.308 5.062 -7.688 5.062 C-8.018 3.742 -8.347 2.423 -8.688 1.062 C-5.538 0.013 -3.299 -0.039 0 0 Z " fill="#E7E7E8" transform="translate(754.6875,879.9375)"/>
<path d="M0 0 C4.455 0.99 4.455 0.99 9 2 C8 5 8 5 6.062 6.062 C5.382 6.372 4.701 6.681 4 7 C3.34 7.66 2.68 8.32 2 9 C2 8.34 2 7.68 2 7 C-0.64 7 -3.28 7 -6 7 C-6 6.01 -6 5.02 -6 4 C-4.02 4 -2.04 4 0 4 C0 2.68 0 1.36 0 0 Z " fill="#DCDCDC" transform="translate(756,887)"/>
<path d="M0 0 C3 1 3 1 4 3 C4.072 5.718 4.093 8.409 4.062 11.125 C4.058 11.879 4.053 12.633 4.049 13.41 C4.037 15.273 4.019 17.137 4 19 C3.01 18.67 2.02 18.34 1 18 C0.67 12.06 0.34 6.12 0 0 Z " fill="#050505" transform="translate(476,319)"/>
<path d="M0 0 C1.254 0.009 2.509 0.018 3.801 0.027 C4.753 0.039 5.706 0.051 6.688 0.062 C6.688 0.392 6.688 0.723 6.688 1.062 C2.067 1.392 -2.553 1.723 -7.312 2.062 C-7.312 2.723 -7.312 3.382 -7.312 4.062 C-3.023 4.062 1.268 4.062 5.688 4.062 C5.688 4.392 5.688 4.723 5.688 5.062 C-0.253 5.062 -6.192 5.062 -12.312 5.062 C-12.312 3.743 -12.312 2.423 -12.312 1.062 C-8.156 0.053 -4.269 -0.04 0 0 Z " fill="#4F4E4F" transform="translate(522.3125,309.9375)"/>
<path d="M0 0 C-4.67 2.738 -7.988 3.34 -13.375 3.188 C-14.62 3.16 -15.865 3.133 -17.148 3.105 C-18.56 3.053 -18.56 3.053 -20 3 C-20.33 2.01 -20.66 1.02 -21 0 C-19.411 0.017 -19.411 0.017 -17.789 0.035 C-16.401 0.045 -15.013 0.054 -13.625 0.062 C-12.577 0.075 -12.577 0.075 -11.508 0.088 C-7.203 0.109 -4.077 -1.223 0 0 Z " fill="#E7E7E8" transform="translate(772,931)"/>
<path d="M0 0 C1.485 0.99 1.485 0.99 3 2 C3.545 4.922 3.927 7.678 4.188 10.625 C4.269 11.427 4.351 12.229 4.436 13.055 C4.636 15.035 4.82 17.018 5 19 C4.01 19 3.02 19 2 19 C0.676 12.57 -0.248 6.571 0 0 Z " fill="#B4B5B6" transform="translate(732,891)"/>
<path d="M0 0 C0 0.66 0 1.32 0 2 C-6.435 3.98 -6.435 3.98 -13 6 C-12 2 -12 2 -10.438 0.75 C-6.891 -0.341 -3.705 -0.123 0 0 Z " fill="#E7E7E8" transform="translate(354,291)"/>
<path d="M0 0 C0.33 0.66 0.66 1.32 1 2 C-3.455 2.495 -3.455 2.495 -8 3 C-5.69 3.33 -3.38 3.66 -1 4 C-1 4.33 -1 4.66 -1 5 C-2.212 5.073 -2.212 5.073 -3.449 5.148 C-4.518 5.223 -5.586 5.298 -6.688 5.375 C-8.271 5.479 -8.271 5.479 -9.887 5.586 C-12.907 5.988 -15.241 6.741 -18 8 C-13.611 3.367 -10.646 0.939 -4.25 0.375 C-3.051 0.263 -3.051 0.263 -1.828 0.148 C-0.923 0.075 -0.923 0.075 0 0 Z " fill="#A2A4A4" transform="translate(664,91)"/>
<path d="M0 0 C0 0.66 0 1.32 0 2 C-0.804 2.454 -1.609 2.907 -2.438 3.375 C-5.127 4.727 -5.127 4.727 -5.812 7.062 C-6.032 9.007 -6.032 9.007 -6 11 C-7.32 11 -8.64 11 -10 11 C-10.375 8.875 -10.375 8.875 -10 6 C-7.043 1.873 -5.203 0 0 0 Z " fill="#262525" transform="translate(735,155)"/>
<path d="M0 0 C5.06 1.325 8.259 3.344 12 7 C13.375 9.812 13.375 9.812 14 12 C13.34 12.66 12.68 13.32 12 14 C11.794 13.093 11.587 12.185 11.375 11.25 C9.636 7.139 7.89 6.095 4 4 C0.775 2.757 0.775 2.757 -2 2 C-1.34 1.34 -0.68 0.68 0 0 Z " fill="#C0C1C2" transform="translate(713,89)"/>
<path d="M0 0 C0.33 0 0.66 0 1 0 C1.247 1.073 1.495 2.145 1.75 3.25 C2.999 6.996 4.025 8.521 7 11 C3.887 10.654 2.171 10.126 -0.375 8.25 C-2 6 -2 6 -1.812 3.312 C-1 1 -1 1 0 0 Z " fill="#D2D3D4" transform="translate(659,110)"/>
<path d="M0 0 C2.788 0.279 3.817 0.804 5.75 2.875 C7 5 7 5 7 8 C6.01 8 5.02 8 4 8 C2.613 6.469 2.613 6.469 1.312 4.5 C0.876 3.85 0.439 3.201 -0.012 2.531 C-0.501 1.773 -0.501 1.773 -1 1 C-0.67 0.67 -0.34 0.34 0 0 Z " fill="#E7E7E8" transform="translate(598,858)"/>
<path d="M0 0 C2.278 2.278 3.052 3.938 4 7 C3.625 9.312 3.625 9.312 3 11 C3 10.34 3 9.68 3 9 C1.68 9.33 0.36 9.66 -1 10 C-2.231 4.585 -2.231 4.585 -1.062 1.625 C-0.537 0.821 -0.537 0.821 0 0 Z " fill="#2E2E2E" transform="translate(476,311)"/>
<path d="M0 0 C7.92 0.33 15.84 0.66 24 1 C24 1.33 24 1.66 24 2 C20.376 2.254 16.751 2.474 13.125 2.688 C11.576 2.797 11.576 2.797 9.996 2.908 C8.517 2.99 8.517 2.99 7.008 3.074 C6.097 3.132 5.185 3.189 4.247 3.249 C3.505 3.167 2.764 3.085 2 3 C1.34 2.01 0.68 1.02 0 0 Z " fill="#A2A4A4" transform="translate(684,88)"/>
<path d="M0 0 C4.998 -0.294 7.984 -0.098 12 3 C12.99 4.485 12.99 4.485 14 6 C13.381 5.711 12.763 5.422 12.125 5.125 C7.841 3.583 3.471 2.816 -1 2 C-0.67 1.34 -0.34 0.68 0 0 Z " fill="#E7E7E8" transform="translate(734,103)"/>
<path d="M0 0 C0 3.96 0 7.92 0 12 C-3 9 -3 9 -3.293 6.957 C-3.195 4.971 -3.098 2.986 -3 1 C-1 0 -1 0 0 0 Z " fill="#050505" transform="translate(535,395)"/>
<path d="M0 0 C-0.33 0.33 -0.66 0.66 -1 1 C-0.34 1.66 0.32 2.32 1 3 C-2.3 3.33 -5.6 3.66 -9 4 C-8.67 3.01 -8.34 2.02 -8 1 C-2.598 -1.299 -2.598 -1.299 0 0 Z " fill="#D2D3D4" transform="translate(346,301)"/>
<path d="M0 0 C1.98 0.495 1.98 0.495 4 1 C4 3.31 4 5.62 4 8 C3.546 7.505 3.092 7.01 2.625 6.5 C1.124 4.774 1.124 4.774 -1 5 C-0.67 3.35 -0.34 1.7 0 0 Z " fill="#444346" transform="translate(635,263)"/>
<path d="M0 0 C7.75 -0.125 7.75 -0.125 10 1 C10 1.66 10 2.32 10 3 C8.52 2.886 7.041 2.759 5.562 2.625 C4.739 2.555 3.915 2.486 3.066 2.414 C2.384 2.277 1.703 2.141 1 2 C0.67 1.34 0.34 0.68 0 0 Z " fill="#E7E7E8" transform="translate(592,456)"/>
<path d="M0 0 C-2.686 2.686 -5.376 3.06 -9 4 C-9.33 3.01 -9.66 2.02 -10 1 C-6.62 -0.04 -3.522 -0.08 0 0 Z " fill="#E7E7E8" transform="translate(688,89)"/>
<path d="M0 0 C3 1 3 1 6 3 C2.7 3 -0.6 3 -4 3 C-2.68 2.01 -1.36 1.02 0 0 Z " fill="#E7E7E8" transform="translate(628,333)"/>
<path d="M0 0 C-2.386 1.892 -4.072 3.024 -7 4 C-7 3.34 -7 2.68 -7 2 C-7.66 1.67 -8.32 1.34 -9 1 C-5.804 -0.065 -3.343 -0.074 0 0 Z " fill="#DCDCDC" transform="translate(358,304)"/>
</svg>